<svg viewBox="0 0 308.52 135.05" xmlns="http://www.w3.org/2000/svg" data-name="Layer 2" id="Layer_2">
  <defs>
    <style>
      .cls-1 {
        fill: #3a3b92;
      }

      .cls-1, .cls-2 {
        fill-rule: evenodd;
        stroke-width: 0px;
      }

      .cls-2 {
        fill: #cc2229;
      }
    </style>
  </defs>
  <g data-name="Layer 1" id="Layer_1-2">
    <g>
      <path d="M83.57,65.31c2.35.62,9.74,3.92,7.17,14.69-2.46,10.33-11.97,20.39-28.99,20.39-7.2,0-22.72-2.12-19.85-19.92.15-.92.47-1.18,1.24-1.18h11.79c.46,0,.68.38.6.76-.71,3.63-.91,10.37,7.89,10.37,5.59,0,11.28-3.38,12.95-10.42,1.98-8.3-6.53-8.95-12.95-8.99-.43,0-.67-.37-.57-.81l1.68-7.05c.2-.84.55-1.05,1.27-1.05h1.17c4.19,0,11.95-.35,13.9-8.55.55-2.31.73-8.1-6.95-8.1-8.54,0-10.97,6.45-11.8,9.42-.18.65-.38.91-1.12.91h-11.22c-.64,0-.72-.54-.58-1.05,3.05-11.17,11.38-19.25,28-19.25,9.47,0,20.92,4.27,17.74,17.63-1.53,6.41-6.97,10.41-11.34,12.02-.15.06-.13.16-.04.18ZM252.47,65.31c2.35.62,9.74,3.92,7.17,14.69-2.46,10.33-11.97,20.39-28.99,20.39-7.2,0-22.72-2.12-19.85-19.92.15-.92.48-1.18,1.24-1.18h11.8c.46,0,.68.38.6.76-.71,3.63-.91,10.37,7.89,10.37,5.59,0,11.28-3.38,12.95-10.42,1.97-8.3-6.53-8.95-12.95-8.99-.43,0-.67-.37-.57-.81l1.68-7.05c.19-.84.55-1.05,1.27-1.05h1.17c4.19,0,11.95-.35,13.9-8.55.55-2.31.73-8.1-6.95-8.1-8.54,0-10.97,6.45-11.8,9.42-.18.65-.38.91-1.12.91h-11.22c-.64,0-.73-.54-.59-1.05,3.04-11.17,11.38-19.25,28-19.25,9.47,0,20.92,4.27,17.74,17.63-1.53,6.41-6.97,10.41-11.34,12.02-.15.06-.12.16-.04.18h0Z" class="cls-2"></path>
      <path d="M133.51,78.4c-2.04,8.55-7.55,12.02-12.64,12.02-6.68,0-9.9-4.9-8.27-11.75,1.89-7.93,7.97-10.86,13.26-10.86,4.39,0,9.56,2.58,7.65,10.59h0ZM116.06,62.91c2.79-9.31,8.14-17.45,15.82-17.45,4.83,0,6.9,2.17,6.79,5.34-.02.45.2.71.62.71h12.29c.72,0,.9-.25.92-.85.21-5.85-1.46-8.61-4.05-11.04-2.93-2.75-8.05-4.13-13.2-4.13-21.97,0-30.69,18.34-34.21,33.12-3.63,15.26-2.32,31.79,18.06,31.79,17.45,0,26.02-12.13,28.63-23.06,2.25-9.44-2.34-19.5-17-19.5-7.88,0-12.07,2.94-14.51,5.25-.05.05-.22.05-.16-.18h0ZM112.29,25.09C102.73,8.09,85.39,0,69.89,0,35.98,0,13.16,24.13.07,54.92c-.17.43-.05.93.56.93h14.17c.85,0,1.06-.15,1.49-1.01C33.56,20.31,53.28,10.47,76.29,10.47c11.91,0,23.84,3.61,35.61,14.95.27.26.56,0,.38-.33h0ZM189.96,78.4c-2.04,8.55-7.55,12.02-12.64,12.02-6.68,0-9.9-4.9-8.27-11.75,1.89-7.93,7.97-10.86,13.26-10.86,4.39,0,9.56,2.58,7.65,10.59h0ZM172.5,62.91c2.79-9.31,8.14-17.45,15.82-17.45,4.83,0,6.9,2.17,6.79,5.34-.01.45.2.71.62.71h12.29c.72,0,.9-.25.92-.85.21-5.85-1.46-8.61-4.05-11.04-2.93-2.75-8.05-4.13-13.2-4.13-21.98,0-30.69,18.34-34.21,33.12-3.63,15.26-2.33,31.79,18.06,31.79,17.45,0,26.02-12.13,28.63-23.06,2.25-9.44-2.34-19.5-17-19.5-7.88,0-12.07,2.94-14.51,5.25-.05.05-.23.05-.16-.18h0ZM196.24,109.96c9.56,17.01,26.89,25.09,42.39,25.09,33.91,0,56.73-24.13,69.82-54.92.17-.43.04-.93-.56-.93h-14.16c-.86,0-1.06.15-1.5,1.01-17.27,34.53-36.99,44.37-60.01,44.37-11.91,0-23.85-3.62-35.61-14.95-.27-.26-.56,0-.38.33h0Z" class="cls-1"></path>
    </g>
  </g>
</svg>