<svg viewBox="0 0 111.16 60" xmlns:xlink="http://www.w3.org/1999/xlink" xmlns="http://www.w3.org/2000/svg" data-name="Layer 2" id="Layer_2">
  <defs>
    <style>
      .cls-1 {
        stroke: #ed1c24;
        stroke-width: .16px;
      }

      .cls-1, .cls-2 {
        fill: none;
      }

      .cls-3 {
        clip-path: url(#clippath);
      }

      .cls-2, .cls-4, .cls-5 {
        stroke-width: 0px;
      }

      .cls-4 {
        fill: #ed1c24;
      }

      .cls-5 {
        fill: #fff;
      }
    </style>
    <clipPath id="clippath">
      <rect height="60" width="111.16" class="cls-2"></rect>
    </clipPath>
  </defs>
  <g data-name="Layer 1" id="Layer_1-2">
    <g data-name="Group 1534" id="Group_1534">
      <g class="cls-3">
        <g data-name="Group 1533" id="Group_1533">
          <path d="M111.06,53.33c-.02,3.62-2.95,6.55-6.58,6.56H6.66c-3.62-.01-6.55-2.95-6.56-6.56V6.67C.11,3.05,3.04.11,6.66.1h97.82c3.62.01,6.56,2.94,6.58,6.57v46.66Z" class="cls-4" data-name="Path 842" id="Path_842"></path>
          <path d="M111.06,53.33c-.02,3.62-2.95,6.55-6.58,6.56H6.66c-3.62-.01-6.55-2.95-6.56-6.56V6.67C.11,3.05,3.04.11,6.66.1h97.82c3.62.01,6.56,2.94,6.58,6.57v46.66Z" class="cls-1" data-name="Path 843" id="Path_843"></path>
          <path d="M42.01,29.8c-.9-.03-1.65.68-1.68,1.59,0,.06,0,.12,0,.18v6.38c-1-.93-2.32-1.44-3.69-1.44-4.53,0-6.9,4.14-6.9,8.22s2.37,8.22,6.9,8.22c1.39.09,2.76-.41,3.75-1.38.1.81.8,1.41,1.61,1.38.9.03,1.66-.68,1.68-1.58,0-.06,0-.12,0-.19v-19.6c.07-.9-.59-1.69-1.49-1.77-.06,0-.12,0-.19,0M36.85,49.92c-2.77,0-3.75-2.8-3.75-5.19s.98-5.2,3.75-5.2,3.74,2.8,3.74,5.2-.98,5.19-3.74,5.19M82.38,39.53c.63-.01,1.25.14,1.8.44.38.22.81.34,1.25.36.8-.02,1.44-.68,1.44-1.48,0-1.4-1.81-2.34-4.5-2.34-5.02,0-7.27,4.13-7.27,8.22s2.25,8.22,7.27,8.22c2.9,0,4.41-1.21,4.41-2.4.07-.75-.49-1.41-1.23-1.48-.05,0-.1,0-.16,0-.39.02-.77.14-1.1.35-.59.34-1.25.51-1.93.5-3.09,0-3.92-3.26-3.92-5.19s.82-5.2,3.92-5.2M22.42,33.04c-.21-1.05-1.1-1.83-2.17-1.89-1.06.05-1.95.81-2.17,1.85,0,.02-2.4,6.46-4.28,11.51h-3.6c-.82-.11-1.57.45-1.69,1.27,0,.07-.01.14-.01.21,0,.71.45,1.47,1.7,1.47h2.51c-.66,1.78-1.11,2.99-1.11,2.99-.14.34-.22.71-.23,1.08,0,.79.64,1.43,1.44,1.43.03,0,.07,0,.1,0,.76,0,1.43-.48,1.66-1.2l.06-.11,1.34-3.66s.08-.22.18-.51h4.15c1.26,0,1.71-.76,1.71-1.47,0-.83-.68-1.5-1.51-1.49-.07,0-.13,0-.2.01h-3.07c.8-2.19,2.24-6.12,3.03-8.29.85,2.32,3.61,9.87,3.61,9.87s.67,1.87.67,1.87l1.33,3.64c.19.8.91,1.35,1.73,1.35.79.06,1.48-.54,1.54-1.33,0-.03,0-.07,0-.1-.02-.38-.1-.75-.25-1.1,0,.02-6.46-17.39-6.46-17.39M69.07,39.53c.63-.01,1.25.14,1.8.44.38.22.82.34,1.26.36.8-.02,1.44-.68,1.44-1.48,0-1.4-1.81-2.34-4.5-2.34-5.02,0-7.26,4.13-7.26,8.22s2.25,8.22,7.26,8.22c2.9,0,4.42-1.21,4.42-2.4.07-.75-.49-1.41-1.24-1.48-.05,0-.11,0-.16,0-.39.02-.76.14-1.09.35-.59.34-1.26.51-1.93.5-3.09,0-3.91-3.26-3.91-5.19s.82-5.2,3.91-5.2M95.52,36.5c-4.66,0-7.1,4.14-7.1,8.22s2.44,8.22,7.1,8.22,7.1-4.14,7.1-8.22-2.43-8.22-7.1-8.22M95.52,49.91c-2.77,0-3.75-2.8-3.75-5.19s.98-5.2,3.75-5.2,3.75,2.8,3.75,5.2-.98,5.19-3.75,5.19M60.05,44.35c0-3.86-2.6-7.85-6.96-7.85-4.75,0-7.24,4.14-7.24,8.22,0,3.79,1.93,8.22,7.38,8.22,2.97,0,6.5-1.92,6.5-3.54.07-.78-.5-1.47-1.28-1.54-.02,0-.04,0-.06,0-.5.07-.96.3-1.31.66-1.05.93-2.42,1.43-3.82,1.4-2.13.09-3.94-1.57-4.03-3.7,0-.03,0-.07,0-.1h8.99c1.24,0,1.82-.56,1.82-1.77M49.23,43.39c.14-1.33.79-3.97,3.85-3.86,2.45,0,3.44,2.17,3.59,3.86h-7.43Z" class="cls-5" data-name="Path 844" id="Path_844"></path>
        </g>
      </g>
    </g>
  </g>
</svg>