<svg viewBox="0 0 1931.84 222" xmlns="http://www.w3.org/2000/svg" data-name="Layer 2" id="Layer_2">
  <defs>
    <style>
      .cls-1 {
        fill: #6899da;
      }

      .cls-1, .cls-2, .cls-3, .cls-4 {
        stroke-width: 0px;
      }

      .cls-5 {
        stroke-width: 10px;
      }

      .cls-5, .cls-6 {
        fill: none;
        stroke: #fff;
      }

      .cls-2 {
        fill: #777;
      }

      .cls-3 {
        fill: #689adb;
      }

      .cls-6 {
        stroke-linecap: round;
        stroke-linejoin: round;
        stroke-width: 11px;
      }

      .cls-4 {
        fill: #3a81d1;
      }
    </style>
  </defs>
  <g data-name="Layer 1" id="Layer_1-2">
    <path d="M327.29,177.14c-24.21,0-43.43-7.32-57.67-21.95-14.24-14.63-21.35-35.21-21.35-61.73,0-25.58,7.14-45.98,21.41-61.19,14.27-15.21,33.51-22.82,57.72-22.82,5.8-.04,11.59.32,17.34,1.08,4.97.69,9.9,1.7,14.74,3.04,4.1,1.24,8.12,2.72,12.03,4.44,4.33,1.88,7.84,3.5,10.51,4.88v38.48h-4.12c-1.95-1.73-4.41-3.81-7.37-6.23-3.2-2.59-6.57-4.96-10.08-7.1-3.92-2.39-8.08-4.37-12.41-5.91-4.54-1.63-9.32-2.45-14.14-2.44-5.49-.06-10.95.87-16.1,2.76-5.3,2.13-10.05,5.4-13.93,9.59-4.05,4.12-7.35,9.68-9.92,16.69-2.57,7.01-3.85,15.28-3.85,24.82,0,10.04,1.34,18.48,4.01,25.31,2.27,6.2,5.86,11.84,10.52,16.53,3.98,3.92,8.77,6.91,14.04,8.78,4.96,1.77,10.18,2.69,15.45,2.71,5.21.02,10.39-.87,15.29-2.65,4.29-1.5,8.4-3.48,12.25-5.91,3.34-2.04,6.53-4.33,9.54-6.83,2.75-2.31,5.13-4.37,7.15-6.18h3.69v37.94c-2.96,1.37-6.4,2.94-10.3,4.72-3.9,1.77-7.92,3.28-12.03,4.5-4.66,1.42-9.41,2.58-14.2,3.47-6.03.91-12.12,1.31-18.21,1.19ZM427.44,174h-37.94V5.33h37.94v168.67ZM559.14,113.19c0,20.02-5.47,35.79-16.42,47.32s-26.43,17.29-46.45,17.29c-19.87,0-35.32-5.76-46.34-17.29-11.02-11.53-16.53-27.3-16.53-47.32,0-20.23,5.51-36.08,16.53-47.53,11.02-11.45,26.47-17.18,46.34-17.18s35.41,5.76,46.39,17.29c10.98,11.53,16.48,27.33,16.48,47.42h0ZM520.22,113.4c.12-6.07-.48-12.12-1.79-18.05-.9-4.13-2.57-8.04-4.93-11.54-1.91-2.76-4.53-4.95-7.59-6.34-3.06-1.24-6.34-1.85-9.65-1.79-3.14-.04-6.26.49-9.21,1.57-3.03,1.27-5.66,3.35-7.59,6.02-2.48,3.49-4.24,7.43-5.2,11.6-1.43,6.07-2.09,12.3-1.95,18.54,0,7.44.61,13.46,1.84,18.05.93,3.92,2.55,7.64,4.77,11,1.91,2.72,4.53,4.86,7.59,6.18,3.19,1.33,6.62,2,10.08,1.95,3.19-.03,6.34-.69,9.27-1.95,3.01-1.2,5.63-3.23,7.53-5.85,2.37-3.4,4.1-7.2,5.1-11.22,1.15-4.37,1.73-10.43,1.73-18.16h0ZM624.82,177.25c-9.33.1-18.63-1.18-27.6-3.79-7.99-2.33-15.39-6.32-21.73-11.71-6.2-5.45-11.06-12.26-14.2-19.89-3.4-7.99-5.09-17.4-5.09-28.24,0-11.63,1.84-21.53,5.53-29.7,3.39-7.77,8.51-14.66,14.96-20.16,6.29-5.17,13.58-8.99,21.41-11.22,8.33-2.44,16.96-3.66,25.64-3.63,6.79,0,13.55.79,20.16,2.33,7.03,1.67,13.83,4.16,20.27,7.43v32.52h-4.88c-1.52-1.45-3.38-3.04-5.58-4.77-2.27-1.78-4.68-3.37-7.21-4.77-2.96-1.61-6.09-2.9-9.32-3.85-3.77-1.09-7.68-1.62-11.6-1.57-9.68,0-17.18,3.38-22.49,10.14s-7.97,15.84-7.97,27.26c0,12.21,2.84,21.32,8.51,27.32s13.21,9,22.6,9c4.25.07,8.48-.48,12.57-1.63,3.25-.93,6.38-2.24,9.32-3.9,2.31-1.36,4.49-2.94,6.5-4.72,1.81-1.63,3.36-3.09,4.66-4.39h4.88v32.52c-2.17.94-4.68,2.02-7.53,3.25-2.83,1.22-5.75,2.23-8.73,3.03-3.41.95-6.86,1.73-10.35,2.33-4.22.61-8.47.88-12.73.81h0ZM789.79,174h-45.09l-32.96-53.01-5.85,7.91v45.09h-37.94V5.33h37.94v94.52l35.99-47.59h44.77l-42.6,52.46,45.74,69.27ZM825.44,174h-37.94V52.27h37.94v121.73ZM826.53,34.93h-40.11V5.33h40.11v29.59ZM954.32,174h-38.16v-60.38c0-4.91-.2-9.81-.6-14.69s-1.14-8.47-2.22-10.79c-1.13-2.57-3.12-4.66-5.64-5.91-3.11-1.32-6.48-1.93-9.86-1.79-3.22.02-6.41.61-9.43,1.73-3.62,1.39-7.05,3.25-10.19,5.53v86.29h-37.94V52.27h37.94v13.44c5.54-4.82,11.64-8.97,18.16-12.36,6.08-3.01,12.78-4.53,19.57-4.44,12.43,0,21.93,3.92,28.51,11.76,6.58,7.84,9.86,19.2,9.86,34.09v79.24ZM1040.92,135.63v-55.17c-2.23-.98-4.55-1.7-6.94-2.17-2.71-.57-5.47-.86-8.24-.87-9.11,0-15.95,2.94-20.54,8.83-4.59,5.89-6.88,14.11-6.88,24.66-.06,4.48.28,8.97,1.03,13.39.61,3.46,1.92,6.76,3.85,9.7,1.75,2.69,4.2,4.85,7.1,6.23,3.54,1.53,7.37,2.25,11.22,2.11,3.42,0,6.81-.59,10.03-1.73,3.36-1.19,6.52-2.87,9.38-4.99h0ZM1078.86,160.02c0,11.27-1.63,20.85-4.88,28.73-3.25,7.88-7.7,14.02-13.33,18.43-5.98,4.65-12.9,7.96-20.27,9.7-8.59,2.07-17.4,3.07-26.23,2.98-7.71.03-15.4-.5-23.03-1.57-6.37-.87-12.68-2.09-18.92-3.63v-30.46h4.44c1.88.72,4.1,1.52,6.67,2.39,2.57.87,5.15,1.66,7.75,2.39,3.11.79,6.14,1.45,9.1,1.95,3.01.51,6.05.76,9.1.76,5.44.13,10.86-.54,16.1-2.01,4.3-1.34,7.53-3.23,9.7-5.69,2.2-2.58,3.76-5.65,4.55-8.94.95-4.25,1.39-8.6,1.3-12.95v-2.28c-4.39,3.83-9.39,6.89-14.8,9.05-5.49,2.25-11.36,3.41-17.29,3.41-15.75,0-27.91-5.13-36.48-15.39s-12.84-25.87-12.84-46.83c-.13-8.72,1.21-17.41,3.96-25.69,2.37-7.12,6.11-13.71,11-19.4,4.47-5.12,10.02-9.18,16.26-11.87,6.25-2.76,13.01-4.18,19.84-4.17,5.65-.08,11.29.72,16.69,2.39,4.75,1.51,9.27,3.67,13.44,6.4l1.41-5.42h36.75v107.74Z" class="cls-1" data-name="Path 913" id="Path_913"></path>
    <path d="M1154.56,176.93c-12.36,0-23.22-1.19-32.57-3.58-8.92-2.24-17.64-5.21-26.07-8.89v-38.37h3.69c7.95,6.78,17,12.13,26.77,15.83,9.05,3.55,18.68,5.42,28.4,5.53,3.07-.06,6.13-.31,9.16-.76,3.16-.33,6.24-1.14,9.16-2.39,2.73-1.17,5.18-2.93,7.15-5.15,2.03-2.44,3.08-5.55,2.93-8.73.09-3.86-1.69-7.53-4.77-9.86-3.36-2.62-7.24-4.5-11.38-5.53-5.49-1.45-11.36-2.82-17.61-4.12-5.93-1.21-11.78-2.81-17.5-4.77-12.5-4.41-21.46-10.33-26.88-17.78-5.42-7.44-8.13-16.76-8.13-27.96,0-15.1,6.4-27.33,19.19-36.69,12.79-9.36,28.76-14.04,47.91-14.04,9.63,0,19.24.98,28.67,2.93,8.77,1.72,17.32,4.37,25.53,7.91v36.85h-3.58c-6.58-5.48-13.99-9.87-21.95-13.01-8.44-3.5-17.48-5.31-26.61-5.31-3.2-.03-6.39.23-9.54.76-3.08.59-6.06,1.57-8.89,2.93-2.56,1.18-4.81,2.94-6.56,5.15-1.79,2.14-2.77,4.85-2.76,7.64-.15,3.78,1.47,7.41,4.39,9.81,2.93,2.42,8.58,4.61,16.96,6.56,5.42,1.23,10.64,2.42,15.66,3.58,5.45,1.28,10.83,2.88,16.1,4.77,11.2,4.05,19.53,9.48,24.99,16.31s8.19,15.84,8.18,27.04c0,16.04-6.31,28.94-18.92,38.7-12.61,9.76-29.65,14.63-51.11,14.63ZM1342.51,52.27l-61.46,166.39h-40.76l18.43-47.59-44.66-118.8h39.89l25.58,76.31,23.96-76.31h39.02ZM1379.58,177.36c-8.56.05-17.09-.94-25.42-2.93-6.82-1.55-13.46-3.84-19.78-6.83v-32.08h3.14c1.81,1.37,3.87,2.89,6.18,4.55,3.03,2.05,6.26,3.8,9.65,5.2,3.86,1.78,7.87,3.21,11.98,4.28,4.72,1.23,9.59,1.83,14.47,1.79,4.83.09,9.64-.75,14.15-2.49,4.08-1.66,6.12-4.3,6.12-7.91.16-2.47-.89-4.85-2.82-6.4-1.88-1.45-5.53-2.82-10.95-4.12-2.89-.72-6.54-1.5-10.95-2.33-3.96-.72-7.87-1.68-11.71-2.87-9.54-2.96-16.71-7.35-21.52-13.17-4.81-5.82-7.21-13.46-7.21-22.93-.02-5.34,1.26-10.61,3.74-15.34,2.69-5.03,6.44-9.42,11-12.85,5.41-3.97,11.49-6.94,17.94-8.78,7.84-2.27,15.96-3.36,24.12-3.25,7.91-.07,15.81.79,23.52,2.55,6.24,1.38,12.3,3.44,18.1,6.12v30.79h-3.04c-1.98-1.47-4.05-2.82-6.18-4.07-2.66-1.62-5.41-3.08-8.24-4.39-3.44-1.53-7.01-2.73-10.68-3.58-3.96-.94-8.02-1.41-12.09-1.41-4.8-.14-9.56.82-13.92,2.82-3.79,1.88-5.69,4.37-5.69,7.48-.11,2.49.93,4.88,2.82,6.5,1.88,1.59,5.96,3.14,12.25,4.66,3.25.79,6.99,1.57,11.22,2.33,4.13.73,8.21,1.77,12.2,3.09,8.74,2.82,15.37,6.96,19.89,12.41,4.52,5.46,6.77,12.7,6.77,21.73,0,5.68-1.37,11.28-4.01,16.31-2.7,5.2-6.6,9.68-11.38,13.07-5.56,4.01-11.78,7.01-18.37,8.89-7.05,2.1-15.48,3.14-25.31,3.14ZM1489.16,176.38c-15.47,0-26.72-3.18-33.77-9.54-7.04-6.36-10.57-16.77-10.57-31.22v-56.91h-14.52v-26.45h14.52V17.47h37.94v34.8h36.53v26.45h-36.53v43.14c0,4.27.04,7.99.11,11.17.02,2.94.61,5.85,1.73,8.56,1.04,2.56,2.94,4.69,5.37,6.02,2.57,1.48,6.3,2.22,11.22,2.22,2.7-.1,5.37-.54,7.97-1.3,2.37-.54,4.68-1.34,6.88-2.39h3.25v26.77c-4.31,1.12-8.7,1.97-13.12,2.55-5.65.67-11.33.98-17.02.92h0ZM1582.92,177.25c-22.98,0-40.6-5.49-52.84-16.48-12.25-10.98-18.37-26.63-18.37-46.93,0-19.87,5.71-35.74,17.13-47.59s27.39-17.78,47.91-17.78c18.64,0,32.66,5.02,42.06,15.07,9.39,10.04,14.09,24.43,14.09,43.14v13.66h-83.14c.17,4.92,1.39,9.74,3.58,14.15,1.88,3.64,4.64,6.75,8.02,9.05,3.45,2.32,7.31,3.96,11.38,4.82,4.66,1.01,9.43,1.5,14.2,1.46,4.38,0,8.74-.49,13.01-1.46,4.02-.89,7.94-2.18,11.71-3.85,2.96-1.3,5.84-2.78,8.62-4.44,2.64-1.59,4.79-3,6.45-4.23h4.01v31.33c-3.11,1.23-5.94,2.37-8.51,3.41-3.44,1.32-6.97,2.39-10.57,3.2-4.19,1.1-8.45,1.95-12.74,2.55-5.3.67-10.64.98-15.98.92h0ZM1595.49,97.47c-.22-8.02-2.08-14.13-5.58-18.32-3.51-4.19-8.87-6.29-16.1-6.29s-13.13,2.2-17.29,6.61c-4.16,4.41-6.45,10.41-6.88,17.99h45.86ZM1783.66,174v-60.81c0-6-.11-11.06-.33-15.18-.08-3.45-.74-6.85-1.95-10.08-.94-2.44-2.73-4.46-5.04-5.69-2.28-1.19-5.47-1.79-9.59-1.79-2.96.02-5.88.66-8.56,1.9-3.23,1.5-6.31,3.3-9.21,5.37v86.28h-38.16v-60.81c0-5.93-.13-10.97-.38-15.12-.11-3.47-.79-6.89-2.01-10.14-.94-2.44-2.73-4.46-5.04-5.69-2.28-1.19-5.44-1.79-9.48-1.79-3.16.01-6.28.75-9.11,2.17-3.02,1.48-5.91,3.18-8.67,5.1v86.28h-37.94V52.27h37.94v13.44c5.41-4.71,11.3-8.86,17.56-12.36,5.71-3.02,12.08-4.54,18.54-4.44,6.91-.15,13.72,1.7,19.62,5.31,5.64,3.54,9.94,8.82,12.9,15.83,6.25-6.01,13.18-11.26,20.65-15.66,5.97-3.51,12.75-5.4,19.67-5.47,5.19-.08,10.34.84,15.18,2.71,4.4,1.75,8.3,4.54,11.38,8.13,3.49,4.06,6.09,8.81,7.64,13.93,1.7,5.38,2.55,12.41,2.55,21.08v79.24h-38.16ZM1872.76,177.36c-8.56.05-17.1-.94-25.42-2.93-6.82-1.55-13.46-3.84-19.78-6.83v-32.08h3.14c1.81,1.37,3.87,2.89,6.18,4.55,3.03,2.05,6.26,3.8,9.65,5.2,3.86,1.78,7.86,3.21,11.97,4.28,4.72,1.23,9.59,1.83,14.47,1.79,4.83.09,9.64-.75,14.15-2.49,4.08-1.66,6.12-4.3,6.12-7.91.16-2.47-.89-4.85-2.82-6.4-1.88-1.45-5.53-2.82-10.95-4.12-2.89-.72-6.54-1.5-10.95-2.33-3.96-.72-7.87-1.68-11.71-2.87-9.54-2.96-16.71-7.35-21.52-13.17-4.81-5.82-7.21-13.46-7.2-22.92-.02-5.34,1.26-10.61,3.74-15.34,2.69-5.03,6.44-9.42,11-12.85,5.41-3.97,11.49-6.94,17.94-8.78,7.84-2.27,15.96-3.36,24.12-3.25,7.91-.07,15.81.79,23.52,2.55,6.24,1.38,12.3,3.44,18.1,6.12v30.78h-3.03c-1.98-1.47-4.05-2.82-6.18-4.07-2.66-1.62-5.41-3.08-8.24-4.39-3.44-1.53-7.01-2.73-10.68-3.58-3.96-.94-8.02-1.41-12.09-1.41-4.8-.15-9.56.82-13.93,2.82-3.79,1.88-5.69,4.37-5.69,7.48-.11,2.49.93,4.88,2.82,6.5,1.88,1.59,5.96,3.14,12.25,4.66,3.25.79,6.99,1.57,11.22,2.33,4.13.73,8.21,1.77,12.2,3.09,8.74,2.82,15.37,6.96,19.89,12.41,4.52,5.46,6.77,12.7,6.78,21.73,0,5.68-1.37,11.28-4.01,16.31-2.7,5.2-6.6,9.68-11.38,13.07-5.56,4.01-11.78,7.01-18.37,8.89-7.05,2.1-15.48,3.14-25.31,3.14h0Z" class="cls-2" data-name="Path 914" id="Path_914"></path>
    <rect ry="22" rx="22" height="222" width="222" x="0" class="cls-3" data-name="Rectangle 1784" id="Rectangle_1784"></rect>
    <path d="M199,213H23c-7.73,0-14-6.27-14-14v-102.45c66.64,19.27,137.36,19.27,204,0v102.45c0,7.73-6.27,14-14,14Z" class="cls-4" data-name="Subtraction 1" id="Subtraction_1"></path>
    <circle r="82" cy="111" cx="111" class="cls-5" data-name="Ellipse 60" id="Ellipse_60"></circle>
    <path d="M111,45.82v65.96h52.35" class="cls-6" data-name="Path 912" id="Path_912"></path>
  </g>
</svg>