<svg viewBox="0 0 137.06 60" xmlns:xlink="http://www.w3.org/1999/xlink" xmlns="http://www.w3.org/2000/svg" data-name="Layer 2" id="Layer_2">
  <defs>
    <style>
      .cls-1 {
        fill: #414042;
      }

      .cls-1, .cls-2 {
        stroke-width: 0px;
      }

      .cls-2 {
        fill: url(#linear-gradient);
      }
    </style>
    <linearGradient gradientUnits="userSpaceOnUse" gradientTransform="translate(29268.77 62153.71) scale(51.5 -60)" y2="1034.44" x2="-566.53" y1="1036.03" x1="-568.74" id="linear-gradient">
      <stop stop-color="#a90034" offset="0"></stop>
      <stop stop-color="#b03" offset=".27"></stop>
      <stop stop-color="#d30032" offset=".72"></stop>
      <stop stop-color="#dc0032" offset="1"></stop>
    </linearGradient>
  </defs>
  <g data-name="Layer 1" id="Layer_1-2">
    <g data-name="DPD logo redgrad rgb responsive" id="DPD_logo_redgrad_rgb_responsive">
      <path d="M88.97,44.13c-2.91.7-5.89,1.04-8.89,1.02-7.52,0-12.5-4-12.5-11.33,0-6.93,4.64-11.42,11.43-11.42,1.4-.06,2.8.17,4.1.68v-10.06h5.86v31.11ZM83.11,28.26c-1.14-.49-2.38-.72-3.62-.68-3.56,0-5.96,2.2-5.96,6.06,0,4.15,2.59,6.5,6.74,6.5.95,0,1.9-.08,2.83-.24v-11.63ZM137.06,44.13c-2.91.7-5.9,1.04-8.89,1.02-7.52,0-12.5-4-12.5-11.33,0-6.93,4.64-11.42,11.43-11.42,1.4-.06,2.8.17,4.1.68v-10.06h5.86v31.11h0ZM131.2,28.26c-1.14-.49-2.37-.72-3.61-.68-3.56,0-5.96,2.2-5.96,6.06,0,4.15,2.59,6.5,6.74,6.5.95,0,1.9-.08,2.83-.24v-11.63ZM98.19,28.21c1.13-.38,2.32-.57,3.51-.54,3.61,0,6.11,2.1,6.11,5.86,0,4.43-2.76,6.44-6.45,6.49v5.13h.3c7.57,0,12.11-4.25,12.11-11.82,0-6.89-4.83-10.94-11.96-10.94-3.26,0-6.49.62-9.52,1.81v29.25h5.91v-25.24Z" class="cls-1" data-name="Path 795" id="Path_795"></path>
      <path d="M35.78,26.78c-.27.14-.59.13-.86-.02l-1.39-.83c-.12-.08-.23-.19-.3-.32v-.02c-.1-.13-.15-.28-.16-.44l-.04-1.62c0-.3.16-.58.41-.75l16.75-9.76L26.69.21c-.6-.28-1.29-.28-1.89,0L1.31,13.02l26.33,15.33c.26.16.42.43.43.74v22.36c-.02.3-.18.58-.45.73l-1.42.79c-.13.07-.28.1-.42.1h-.03c-.16,0-.31-.03-.45-.1l-1.42-.79c-.26-.16-.42-.43-.44-.73v-19.93c-.02-.16-.11-.3-.24-.39L0,17.62v26.45c.04.66.38,1.26.93,1.62l23.89,14.08c.58.3,1.27.3,1.86,0l23.89-14.09c.55-.36.89-.97.93-1.62v-26.45l-15.72,9.16Z" class="cls-2" data-name="Path 796" id="Path_796"></path>
    </g>
  </g>
</svg>