<svg viewBox="0 0 146.8 45.88" xmlns="http://www.w3.org/2000/svg" data-name="Layer 2" id="Layer_2">
  <defs>
    <style>
      .cls-1 {
        fill: #003a70;
      }

      .cls-1, .cls-2 {
        stroke-width: 0px;
      }

      .cls-2 {
        fill: #84bd00;
      }
    </style>
  </defs>
  <g data-name="Layer 1" id="Layer_1-2">
    <g>
      <path d="M10.1,20.97c-.8.4-1.4,1.1-1.8,1.9h7.7c-.4-1-1.2-1.8-2.2-2.1-1.2-.5-2.6-.4-3.7.2M8.1,18.57c1.5-1,3.5-1.3,5.3-1,1.6.3,3.1,1,4.2,2.2.6.6,1.1,1.3,1.4,2.1.6,1.3.7,2.8.6,4.2h-11.4c.3.9.9,1.7,1.7,2.2,1,.7,2.4.8,3.5.5.9-.3,1.7-.9,2.4-1.5.8.7,1.6,1.4,2.3,2.1-.6.7-1.3,1.3-2.1,1.8-2.4,1.4-5.7,1.3-8-.3-1.4-1-2.5-2.5-3-4.2-.3-1.2-.3-2.5,0-3.8.4-1.8,1.5-3.4,3.1-4.3" class="cls-1"></path>
      <path d="M24.7,17.47c1-.2,2-.1,2.9.2.9.3,1.6.8,2.3,1.5.8-.8,1.8-1.4,2.9-1.7,1.2-.2,2.6-.1,3.7.5.8.4,1.5,1,2,1.7.8,1.1,1.1,2.4,1.2,3.8v8.2h-3.4v-8.2c0-.8-.3-1.6-.9-2.2-.8-.7-2.3-.7-3,.1-.6.6-.8,1.4-.8,2.1v8.1h-3.4v-8.1c0-.8-.2-1.6-.8-2.2-.7-.5-1.7-.7-2.6-.3-.5.2-.9.6-1.1,1.1s-.3,1.1-.3,1.7v7.9h-3.4v-8.1c0-1.4.4-2.8,1.2-4,.9-1.1,2.1-1.8,3.5-2.1" class="cls-1"></path>
      <path d="M45.3,17.97c.8-.2,1.6-.2,2.5-.3v3.1c-.8.1-1.6.1-2.3.5-.5.2-.9.6-1.1,1-.4.7-.4,1.5-.4,2.2v7.1h-3.4v-5.6c0-1.1-.1-2.3.2-3.4.2-1.1.7-2.2,1.5-3,.6-.8,1.8-1.3,3-1.6" class="cls-1"></path>
    </g>
    <path d="M22.3.77C25.8.07,29.5-.13,33.1.07c5.2.3,10.4,1.5,15.2,3.8,3.9,1.9,7.4,4.5,10.1,7.9,1.2,1.5,2.1,3.2,2.8,5,.8,2,1.2,4.2,1.1,6.4,0,3.5-1.2,6.9-3.2,9.8-1.7,2.5-3.9,4.6-6.3,6.3-2.7,1.9-5.6,3.3-8.7,4.4-4.8,1.6-9.8,2.3-14.8,2.2-2.1-.1-4.3-.3-6.4-.7.3,0,.6,0,.9.1,5.2.4,10.5-.1,15.4-1.7,3.7-1.2,7.3-2.9,10.4-5.4,1.3-1.1,2.5-2.3,3.6-3.6,1.2-1.6,2.2-3.4,2.8-5.4s.7-4.1.4-6.1-1-4-2.1-5.8-2.4-3.3-3.9-4.7c-1.7-1.5-3.6-2.8-5.6-3.8-4.6-2.4-9.7-3.6-14.8-4-4.9-.3-9.9.2-14.6,1.6-3.9,1.2-7.7,3-10.8,5.7-1.8,1.5-3.4,3.3-4.6,5.4.6-1.8,1.5-3.4,2.5-5,1.7-2.3,3.8-4.3,6.1-6C12.5,3.57,17.3,1.77,22.3.77" class="cls-2"></path>
    <g>
      <g>
        <path d="M70.8,13.87V4.97c0-.2.1-.3.3-.3h1c.2,0,.3.1.3.2l2.8,6.2,2.8-6.2c.1-.1.2-.2.3-.2h1c.2,0,.3.1.3.3v8.9c0,.2-.1.3-.3.3h-.6c-.2,0-.3-.1-.3-.3v-7.1l-2.5,5.6c-.1.1-.2.2-.3.2h-.6c-.2,0-.3-.1-.3-.2l-2.5-5.6v7.1c0,.2-.1.3-.3.3h-.7c-.3,0-.4-.1-.4-.3Z" class="cls-1"></path>
        <path d="M81.7,13.87V4.97c0-.2.1-.3.3-.3h4.9c.2,0,.3.1.3.3v.6c0,.2-.1.3-.3.3h-3.9v2.9h3.5c.2,0,.3.1.3.3v.6c0,.2-.1.3-.3.3h-3.5v3h3.9c.2,0,.3.1.3.3v.6c0,.2-.1.3-.3.3h-4.9c-.2,0-.3-.1-.3-.3Z" class="cls-1"></path>
        <path d="M87.9,5.67v-.7c0-.2.1-.3.3-.3h5.7c.2,0,.3.1.3.3v.6c0,.2-.1.3-.3.3h-2.2v8c0,.2-.1.3-.3.3h-.7c-.2,0-.3-.1-.3-.3V5.87h-2.2c-.2,0-.3-.1-.3-.2Z" class="cls-1"></path>
        <path d="M94,13.87l3.3-8.9c.1-.2.2-.2.3-.2h.9c.2,0,.3.1.3.2l3.3,8.9v.2s-.1.1-.2.1h-.7c-.2,0-.3-.1-.3-.2l-.7-1.9h-4.2l-.7,1.9c-.1.2-.2.2-.3.2h-.7c-.1,0-.2,0-.2-.1s-.2-.1-.1-.2ZM96.4,10.87h3.4l-1.7-4.7-1.7,4.7Z" class="cls-1"></path>
        <path d="M103.4,13.87V4.97c0-.2.1-.3.3-.3h.7c.2,0,.3.1.3.3v8h3.8c.2,0,.3.1.3.3v.6c0,.2-.1.3-.3.3h-4.8c-.2,0-.3-.1-.3-.3Z" class="cls-1"></path>
      </g>
      <g>
        <path d="M70.8,27.37v-8.9c0-.2.1-.3.3-.3h3.2c.8,0,1.5.3,2.1.9.6.6.9,1.3.9,2.1,0,.6-.2,1.2-.5,1.7s-.8.9-1.4,1.1l2.9,3.4c.1.1.1.2.1.2,0,.1-.1.1-.2.1h-.8c-.1,0-.3-.1-.4-.2l-3-3.5h-1.8v3.3c0,.2-.1.3-.3.3h-.7c-.3.1-.4,0-.4-.2ZM72.1,22.97h2.2c.5,0,.9-.2,1.2-.5s.5-.8.5-1.2c0-.5-.2-.9-.5-1.2s-.7-.5-1.2-.5h-2.2v3.4Z" class="cls-2"></path>
        <path d="M79.3,27.37v-8.9c0-.2.1-.3.3-.3h4.9c.2,0,.3.1.3.3v.6c0,.2-.1.3-.3.3h-3.9v2.9h3.5c.2,0,.3.1.3.3v.6c0,.2-.1.3-.3.3h-3.5v3h3.9c.2,0,.3.1.3.3v.6c0,.2-.1.3-.3.3h-4.9c-.2,0-.3-.1-.3-.3Z" class="cls-2"></path>
        <path d="M86.1,24.87c-.2-.6-.4-1.2-.4-1.9s.1-1.3.4-1.9c.2-.6.6-1.1,1-1.6.4-.4,1-.8,1.6-1,.6-.3,1.3-.4,2-.4,1,0,1.9.3,2.7.8.8.5,1.4,1.3,1.7,2.1v.2c0,.1-.1.1-.2.1h-.8c-.2,0-.3-.1-.3-.2-.3-.6-.7-1-1.2-1.3s-1.2-.5-1.8-.5c-.7,0-1.4.2-1.9.5-.6.3-1,.8-1.3,1.3-.3.6-.5,1.2-.5,1.9s.2,1.3.5,1.9c.3.6.7,1,1.3,1.3.6.3,1.2.5,1.9.5s1.3-.2,1.8-.5c.6-.3,1-.8,1.2-1.3.1-.1.2-.2.3-.2h.8c.1,0,.2,0,.2.1s.1.1,0,.2c-.3.9-.9,1.6-1.7,2.2-.8.5-1.7.8-2.7.8-.7,0-1.4-.1-2-.4-.6-.3-1.1-.6-1.6-1-.4-.6-.7-1.1-1-1.7Z" class="cls-2"></path>
        <path d="M95.5,18.37c0-.1.1-.1.2-.1h.8c.1,0,.3.1.3.2l2.3,3.7,2.3-3.7c.1-.1.2-.2.3-.2h.8c.1,0,.2,0,.2.1v.2l-3,4.8v4c0,.2-.1.3-.3.3h-.7c-.2,0-.3-.1-.3-.3v-4.1l-3-4.8c.1,0,.1-.1.1-.1Z" class="cls-2"></path>
        <path d="M103.2,24.87c-.2-.6-.4-1.2-.4-1.9s.1-1.3.4-1.9c.2-.6.6-1.1,1-1.6.4-.4,1-.8,1.6-1,.6-.3,1.3-.4,2-.4,1,0,1.9.3,2.7.8.8.5,1.4,1.3,1.7,2.1v.2s-.1.1-.2.1h-.8c-.2,0-.3-.1-.3-.2-.3-.6-.7-1-1.2-1.3-.6-.3-1.2-.5-1.8-.5-.7,0-1.4.2-1.9.5-.6.3-1,.8-1.3,1.3-.3.6-.5,1.2-.5,1.9s.2,1.3.5,1.9c.3.6.7,1,1.3,1.3.6.3,1.2.5,1.9.5s1.3-.2,1.8-.5c.6-.3,1-.8,1.2-1.3.1-.1.2-.2.3-.2h.8c.1,0,.2,0,.2.1s.1.1,0,.2c-.3.9-.9,1.6-1.7,2.2-.8.5-1.7.8-2.7.8-.7,0-1.4-.1-2-.4-.6-.3-1.1-.6-1.6-1-.5-.6-.8-1.1-1-1.7Z" class="cls-2"></path>
        <path d="M113.6,27.37v-8.9c0-.2.1-.3.3-.3h.7c.2,0,.3.1.3.3v8h3.8c.2,0,.3.1.3.3v.6c0,.2-.1.3-.3.3h-4.7c-.3,0-.4-.1-.4-.3Z" class="cls-2"></path>
        <path d="M120.1,27.37v-8.9c0-.2.1-.3.3-.3h.7c.2,0,.3.1.3.3v8.9c0,.2-.1.3-.3.3h-.7c-.2,0-.3-.1-.3-.3Z" class="cls-2"></path>
        <path d="M123.4,27.37v-8.9c0-.2.1-.3.3-.3h.5c.2,0,.3.1.3.2l4.2,6.8v-6.7c0-.2.1-.3.3-.3h.7c.2,0,.3.1.3.3v8.9c0,.2-.1.3-.3.3h-.5c-.2,0-.3-.1-.3-.2l-4.2-6.8v6.7c0,.2-.1.3-.3.3h-.7c-.2,0-.3-.1-.3-.3Z" class="cls-2"></path>
        <path d="M131.8,24.87c-.2-.6-.4-1.2-.4-1.9s.1-1.3.4-1.9c.2-.6.6-1.1,1-1.6.4-.4.9-.8,1.6-1,.6-.3,1.3-.4,2-.4,1,0,1.9.3,2.7.8.8.5,1.4,1.2,1.7,2.1v.2s-.1.1-.2.1h-.8c-.2,0-.3-.1-.3-.2-.3-.5-.7-1-1.2-1.3-.6-.3-1.2-.5-1.8-.5-.7,0-1.3.2-1.9.5-.6.3-1,.8-1.3,1.3-.3.6-.5,1.2-.5,1.9s.2,1.3.5,1.9c.3.6.7,1,1.3,1.3s1.2.5,1.9.5c.6,0,1.1-.1,1.6-.3s.9-.5,1.2-.9.5-.9.5-1.5h-2.8c-.2,0-.3-.1-.3-.3v-.6c0-.2.1-.3.3-.3h3.7c.2,0,.3.1.3.3v4.3c0,.2-.1.3-.3.3h-.6c-.2,0-.3-.1-.3-.3v-1.1c-.3.5-.8.9-1.4,1.2-.6.3-1.2.4-1.9.4s-1.3-.1-1.9-.4c-.6-.3-1.1-.6-1.5-1-.7-.5-1-1-1.3-1.6Z" class="cls-2"></path>
      </g>
      <g>
        <path d="M70.8,40.97v-8.9c0-.2.1-.3.3-.3h3.2c.8,0,1.5.3,2.1.9.6.6.9,1.3.9,2.1,0,.6-.2,1.2-.5,1.7-.4.5-.8.9-1.4,1.1l2.9,3.4c.1.1.1.2.1.2,0,.1-.1.1-.2.1h-.8c-.1,0-.3-.1-.4-.2l-3-3.5h-1.8v3.4c0,.2-.1.3-.3.3h-.7c-.3-.1-.4-.2-.4-.3ZM72.1,36.47h2.2c.5,0,.9-.2,1.2-.5.3-.3.5-.8.5-1.2,0-.5-.2-.9-.5-1.2-.4-.5-.8-.6-1.2-.6h-2.2v3.5Z" class="cls-1"></path>
        <path d="M79.3,40.97v-8.9c0-.2.1-.3.3-.3h4.9c.2,0,.3.1.3.3v.6c0,.2-.1.3-.3.3h-3.9v2.9h3.5c.2,0,.3.1.3.3v.6c0,.2-.1.3-.3.3h-3.5v3h3.9c.2,0,.3.1.3.3v.6c0,.2-.1.3-.3.3h-4.9c-.2-.1-.3-.2-.3-.3Z" class="cls-1"></path>
        <path d="M86.3,40.97v-8.9c0-.2.1-.3.3-.3h.7c.2,0,.3.1.3.3v8.9c0,.2-.1.3-.3.3h-.7c-.2-.1-.3-.2-.3-.3Z" class="cls-1"></path>
        <path d="M89.6,40.97v-8.9c0-.2.1-.3.3-.3h1c.2,0,.3.1.3.2l2.8,6.2,2.8-6.2c.1-.1.2-.2.3-.2h1c.2,0,.3.1.3.3v8.9c0,.2-.1.3-.3.3h-.7c-.2,0-.3-.1-.3-.3v-7.1l-2.4,5.5c-.1.1-.2.2-.3.2h-.7c-.2,0-.3-.1-.3-.2l-2.5-5.6v7.2c0,.2-.1.3-.3.3h-.7c-.2-.1-.3-.2-.3-.3Z" class="cls-1"></path>
        <path d="M99.7,40.87l3.3-8.9c.1-.2.2-.2.3-.2h.9c.2,0,.3.1.3.2l3.3,8.9v.2c0,.1-.1.1-.2.1h-.7c-.2,0-.3-.1-.3-.2l-.7-1.9h-4.2l-.7,1.9c-.1.2-.2.2-.3.2h-.7c-.1,0-.2,0-.2-.1s-.1-.1-.1-.2ZM102.1,37.97h3.4l-1.7-4.7-1.7,4.7Z" class="cls-1"></path>
        <path d="M108.6,38.37c-.2-.6-.4-1.2-.4-1.9s.1-1.3.4-1.9c.2-.6.6-1.1,1-1.6.4-.4.9-.8,1.6-1,.6-.3,1.3-.4,2-.4,1,0,1.9.3,2.7.8s1.4,1.2,1.7,2.1v.2s-.1.1-.2.1h-.8c-.2,0-.3-.1-.3-.2-.3-.5-.7-1-1.2-1.3-.6-.3-1.2-.5-1.8-.5-.7,0-1.3.2-1.9.5s-1,.8-1.3,1.3c-.3.6-.5,1.2-.5,1.9s.2,1.3.5,1.9c.3.6.7,1,1.3,1.3.6.3,1.2.5,1.9.5.6,0,1.1-.1,1.6-.3s.9-.5,1.2-.9c.3-.4.5-.9.5-1.5h-2.8c-.2,0-.3-.1-.3-.3v-.6c0-.2.1-.3.3-.3h3.7c.2,0,.3.1.3.3v4.4c0,.2-.1.3-.3.3h-.8c-.2,0-.3-.1-.3-.3v-1.1c-.3.5-.8.9-1.4,1.2s-1.2.4-1.9.4-1.3-.1-1.9-.4c-.6-.3-1.1-.6-1.5-1-.5-.6-.9-1.1-1.1-1.7Z" class="cls-1"></path>
        <path d="M119.4,40.97v-8.9c0-.2.1-.3.3-.3h.7c.2,0,.3.1.3.3v8.9c0,.2-.1.3-.3.3h-.7c-.2-.1-.3-.2-.3-.3Z" class="cls-1"></path>
        <path d="M122.7,40.97v-8.9c0-.2.1-.3.3-.3h.5c.2,0,.3.1.3.2l4.2,6.8v-6.7c0-.2.1-.3.3-.3h.7c.2,0,.3.1.3.3v8.9c0,.2-.1.3-.3.3h-.5c-.2,0-.3-.1-.3-.2l-4.2-6.8v6.7c0,.2-.1.3-.3.3h-.7c-.2-.1-.3-.2-.3-.3Z" class="cls-1"></path>
        <path d="M131.3,40.97v-8.9c0-.2.1-.3.3-.3h4.9c.2,0,.3.1.3.3v.6c0,.2-.1.3-.3.3h-3.9v2.9h3.5c.2,0,.3.1.3.3v.6c0,.2-.1.3-.3.3h-3.5v3h3.9c.2,0,.3.1.3.3v.6c0,.2-.1.3-.3.3h-4.9c-.2-.1-.3-.2-.3-.3Z" class="cls-1"></path>
        <path d="M138.3,40.97v-8.9c0-.2.1-.3.3-.3h3.7c.9,0,1.6.2,2.3.6.7.4,1.2,1,1.6,1.7.4.7.6,1.5.6,2.4s-.2,1.7-.6,2.4c-.4.7-.9,1.3-1.6,1.7-.7.4-1.5.6-2.3.6h-3.7c-.2,0-.3-.1-.3-.2ZM139.5,40.07h2.7c1,0,1.8-.3,2.4-1,.6-.7.9-1.5.9-2.5s-.3-1.9-.9-2.5c-.6-.7-1.4-1-2.4-1h-2.7v7Z" class="cls-1"></path>
      </g>
    </g>
  </g>
</svg>