<svg viewBox="0 0 184.81 78.51" xmlns="http://www.w3.org/2000/svg" data-name="Layer 2" id="Layer_2">
  <defs>
    <style>
      .cls-1 {
        fill: #007bc4;
        fill-rule: evenodd;
        stroke-width: 0px;
      }
    </style>
  </defs>
  <g data-name="Layer 1" id="Layer_1-2">
    <path d="M174.5,0c3.67,0,6.66,2.83,6.66,6.5s-2.98,6.5-6.66,6.5-6.66-2.83-6.66-6.5,2.99-6.5,6.66-6.5ZM45.87.35v14.02h-8.98v-5.68H15.29v14.04h19.64v7.96H15.29v14.18h21.61v-5.68h8.98v14.04H.58v-8.36h4.98V8.69H.57V.35h45.3ZM77.54,37.66L92.03.35h5.53l-21.01,53.12h-5.8L49.63.35h13.56l14.35,37.31ZM109.06,25.81V6.81h28.27c4.73,0,7.43.8,9.26,2.48,1.64,1.5,2.57,3.67,2.57,6.57s-.82,5.44-2.48,7.19c-1.72,1.81-4.31,2.78-9.18,2.78h-28.44v-.02ZM161.83,53.24l-18.69-21.59c7.94-.82,13.96-6.57,13.96-15.88,0-4.71-1.42-8.32-4.09-10.84-3.3-3.12-8.07-4.58-15.68-4.58h-35.97v52.88h7.7v-20.97h25.5l17.8,20.97h9.47ZM180.3,46.11c0,3.1,1.28,4.36,4.13,5.8v1.32h-19.29v-1.32c2.85-1.42,4.14-2.7,4.14-5.8v-20.24c0-2.74-.49-4.24-4.14-6.68v-1.32h15.15v28.24ZM131,65.15h1.9v-1.75h-1.9v-.73c0-.6.13-1.02.4-1.26.24-.24.71-.35,1.35-.35v-1.77c-1.33,0-2.32.29-2.94.82-.64.55-.95,1.42-.95,2.59v.73h-1.22v1.72h1.22v8.54h2.14s0-8.54,0-8.54ZM27.12,61.68c-.26-.25-.41-.61-.4-.97,0-.38.13-.71.4-.97.25-.26.61-.41.97-.4.38,0,.69.13.95.4.26.25.41.61.4.97,0,.36-.14.72-.4.97-.25.26-.59.4-.95.4-.36,0-.71-.15-.97-.4ZM29.13,63.43v10.26h-2.12v-10.26h2.12ZM.64,65.78c.42-.8,1.02-1.42,1.75-1.86.73-.44,1.57-.66,2.48-.66.66,0,1.32.15,1.99.44.64.29,1.17.68,1.55,1.17v-4.95h2.15v13.78h-2.15v-1.55c-.35.49-.82.91-1.44,1.24-.66.34-1.39.5-2.12.49-1.78,0-3.4-1-4.2-2.59-.43-.86-.65-1.81-.64-2.77,0-1.04.22-1.95.64-2.74ZM7.96,66.7c-.26-.5-.66-.92-1.15-1.19-1.45-.85-3.31-.36-4.16,1.09-.01.02-.02.04-.04.07-.29.51-.44,1.13-.44,1.84s.15,1.32.44,1.86c.29.53.69.95,1.15,1.22.49.29.97.42,1.53.42s1.06-.13,1.53-.42c.47-.27.86-.66,1.15-1.19.3-.57.45-1.21.44-1.86,0-.69-.16-1.31-.44-1.82h0ZM21.76,69.34h-7.83c.07.82.38,1.48.91,1.97.55.5,1.27.76,2.01.75,1.15,0,1.95-.49,2.41-1.44h2.3c-.29.94-.88,1.75-1.68,2.32-.82.6-1.82.91-3.03.91-.92.01-1.83-.21-2.63-.66-.77-.44-1.41-1.08-1.84-1.86-.44-.79-.66-1.72-.66-2.78s.22-1.99.64-2.79c.42-.8,1.04-1.42,1.82-1.86.78-.44,1.66-.64,2.67-.64s1.84.22,2.59.64c.75.42,1.35,1.02,1.77,1.77.42.78.64,1.64.64,2.63-.01.35-.04.69-.09,1.04ZM19.62,67.64c-.02-.77-.29-1.42-.84-1.88-.57-.48-1.29-.73-2.04-.71-.73,0-1.35.25-1.88.71-.54.49-.87,1.16-.93,1.88,0,0,5.68,0,5.68,0ZM25.13,73.7v-13.78h-2.12v13.78h2.12ZM37.86,63.43l-2.9,8.36-2.9-8.36h-2.28l3.87,10.26h2.54l3.92-10.26s-2.26,0-2.26,0ZM50.16,69.34h-7.83c.07.82.38,1.48.91,1.97.55.5,1.27.76,2.01.75,1.15,0,1.95-.49,2.41-1.44h2.3c-.29.94-.88,1.75-1.68,2.32-.82.6-1.82.91-3.03.91-.97,0-1.86-.22-2.63-.66-.77-.44-1.41-1.08-1.84-1.86-.44-.79-.66-1.72-.66-2.78s.22-1.99.64-2.79c.41-.78,1.04-1.43,1.82-1.86.77-.44,1.66-.64,2.67-.64s1.84.22,2.59.64c.75.42,1.35,1.02,1.77,1.77.42.78.64,1.64.64,2.63-.01.35-.04.69-.09,1.04ZM48.02,67.64c-.02-.77-.29-1.42-.84-1.88-.57-.48-1.29-.73-2.04-.71-.73,0-1.35.25-1.88.71-.53.47-.84,1.1-.93,1.88h5.68ZM56.6,63.26c-.71,0-1.32.15-1.84.44-.5.29-.92.7-1.22,1.19v-1.48h-2.12v10.26h2.12v-5.4c0-1.04.22-1.77.64-2.19.42-.42,1.04-.64,1.88-.64h.53v-2.19ZM67.61,63.43l-6.31,15.08h-2.19l2.08-5-4.05-10.08h2.37l2.9,7.83,3.01-7.83h2.19ZM88.31,65.25c-.34-.63-.87-1.15-1.5-1.48-.67-.34-1.41-.52-2.17-.51-.75,0-1.46.18-2.12.55-.66.38-1.15.86-1.46,1.48-.33-.64-.84-1.17-1.48-1.5-.67-.36-1.43-.55-2.19-.53-.6,0-1.17.11-1.7.35-.51.23-.96.57-1.32,1v-1.17h-2.12v10.26h2.12v-5.73c0-.93.25-1.64.71-2.12.47-.49,1.08-.73,1.88-.73s1.42.24,1.88.73c.47.51.69,1.19.69,2.12v5.73h2.1v-5.73c0-.93.25-1.64.71-2.12.47-.49,1.08-.73,1.88-.73s1.42.24,1.88.73c.47.51.69,1.19.69,2.12v5.73h2.1v-6.06c0-.93-.18-1.72-.55-2.39h0ZM90.59,65.78c.42-.8,1.02-1.42,1.75-1.86.73-.44,1.55-.66,2.45-.66.8,0,1.5.15,2.12.46.6.31,1.08.71,1.44,1.17v-1.48h2.14v10.26h-2.14v-1.53c-.36.49-.84.88-1.48,1.22-.66.34-1.39.5-2.12.49-.88,0-1.68-.22-2.41-.69-.74-.46-1.35-1.12-1.75-1.9-.43-.86-.66-1.8-.64-2.76,0-1.04.22-1.93.64-2.72h0ZM97.91,66.71c-.26-.5-.66-.92-1.15-1.19-1.45-.85-3.31-.37-4.16,1.08-.01.02-.03.05-.04.07-.29.51-.44,1.13-.44,1.84s.15,1.32.44,1.86c.29.53.69.95,1.15,1.22.49.29.97.42,1.53.42s1.06-.13,1.53-.42c.46-.27.86-.66,1.15-1.19.29-.53.44-1.15.44-1.86s-.15-1.31-.44-1.82ZM104.06,63.92c-.73.44-1.32,1.06-1.75,1.86-.44.79-.64,1.7-.64,2.74s.22,1.95.64,2.76c.8,1.59,2.42,2.59,4.2,2.59.79,0,1.5-.15,2.12-.49.62-.33,1.08-.75,1.44-1.24v1.55h2.14v-13.78h-2.14v4.96c-.41-.51-.94-.91-1.55-1.17-.63-.28-1.3-.43-1.99-.44-.91,0-1.75.22-2.48.66ZM108.48,65.51c.49.26.86.66,1.15,1.19.29.51.42,1.13.44,1.82,0,.71-.15,1.32-.44,1.86-.26.5-.66.91-1.15,1.19-.47.29-.97.42-1.53.42-.54,0-1.07-.14-1.53-.42-.49-.29-.89-.71-1.15-1.22-.3-.57-.45-1.21-.44-1.86,0-.71.15-1.33.44-1.84.53-.98,1.56-1.58,2.67-1.57.56,0,1.06.15,1.53.42h0ZM123.41,69.34h-7.83c.07.82.38,1.48.91,1.97.55.5,1.27.76,2.01.75,1.15,0,1.95-.49,2.41-1.44h2.3c-.3.94-.89,1.75-1.68,2.32-.82.6-1.81.91-3.03.91-.97,0-1.86-.22-2.63-.66-.77-.44-1.41-1.08-1.84-1.86-.44-.79-.66-1.72-.66-2.78s.22-1.99.64-2.79c.42-.8,1.04-1.42,1.82-1.86.77-.44,1.66-.64,2.67-.64s1.84.22,2.59.64c.75.42,1.35,1.02,1.77,1.77.42.78.64,1.64.64,2.63-.01.35-.04.69-.09,1.04h0ZM121.27,67.64c-.02-.77-.29-1.42-.84-1.88-.57-.48-1.29-.73-2.04-.71-.73,0-1.35.25-1.88.71-.54.49-.87,1.16-.93,1.88h5.68ZM135.69,73.19c-.77-.44-1.41-1.08-1.84-1.86-.44-.79-.66-1.72-.66-2.78s.22-1.97.69-2.77c.46-.8,1.08-1.44,1.88-1.86.8-.44,1.68-.64,2.65-.64s1.86.22,2.65.64c.79.44,1.42,1.06,1.88,1.86.47.79.69,1.72.69,2.77s-.25,1.97-.71,2.76c-.47.82-1.1,1.44-1.92,1.88-.82.44-1.7.66-2.7.66s-1.84-.22-2.61-.66ZM139.85,71.62c.49-.27.9-.68,1.17-1.17.31-.53.44-1.15.44-1.9s-.13-1.37-.42-1.88c-.26-.49-.65-.89-1.13-1.17-.46-.27-.99-.4-1.53-.4-.55,0-1.06.13-1.53.4-.47.26-.84.64-1.1,1.17-.29.58-.43,1.23-.42,1.88,0,1.1.29,1.97.84,2.56.57.6,1.28.91,2.12.91.55,0,1.06-.13,1.55-.4ZM150.02,63.26c-.71,0-1.32.15-1.84.44-.5.29-.92.7-1.21,1.19v-1.48h-2.12v10.26h2.12v-5.4c0-1.04.22-1.77.64-2.19.42-.42,1.04-.64,1.88-.64h.53v-2.19ZM164.24,63.43l-6.31,15.08h-2.19l2.08-5-4.05-10.08h2.37l2.9,7.83,3.01-7.83h2.19ZM164.53,71.33c.44.8,1.06,1.42,1.84,1.86.8.44,1.66.66,2.61.66s1.88-.22,2.7-.66c.82-.44,1.46-1.06,1.92-1.88.46-.79.71-1.72.71-2.76s-.22-1.97-.69-2.77c-.44-.78-1.09-1.42-1.88-1.86-.82-.43-1.73-.65-2.65-.64-.97,0-1.86.2-2.65.64-.79.43-1.44,1.07-1.88,1.86-.47.79-.69,1.72-.69,2.77s.22,1.99.66,2.78h0ZM171.72,70.44c-.31.53-.69.91-1.17,1.17-.47.26-1.01.4-1.55.4-.84,0-1.55-.31-2.12-.91-.55-.6-.84-1.46-.84-2.56,0-.73.15-1.37.42-1.88.26-.53.64-.91,1.1-1.17.47-.26.97-.4,1.53-.4s1.06.13,1.53.4c.46.26.84.66,1.13,1.17.29.51.42,1.13.42,1.88s-.13,1.37-.44,1.9h0ZM184.81,63.43v10.26h-2.12v-1.22c-.35.43-.8.77-1.31,1-.53.24-1.1.35-1.72.35-.79,0-1.53-.18-2.17-.51-.64-.33-1.16-.85-1.5-1.48-.38-.66-.55-1.46-.55-2.39v-6.04h2.1v5.7c0,.93.22,1.61.69,2.12.46.49,1.08.73,1.88.73s1.42-.25,1.88-.73c.47-.49.71-1.19.71-2.12v-5.71l2.12.02h0Z" class="cls-1"></path>
  </g>
</svg>