<svg viewBox="0 0 160 14" xmlns="http://www.w3.org/2000/svg" data-name="Layer 2" id="Layer_2">
  <defs>
    <style>
      .cls-1 {
        fill: #303030;
        stroke-width: 0px;
      }
    </style>
  </defs>
  <g data-name="Layer 1" id="Layer_1-2">
    <path d="M141.24,0h3.37v10.73h4.3V0h3.37v10.73h3.28c.6,0,1.08-.47,1.08-1.04V0h3.36v9.68c0,2.39-1.99,4.32-4.44,4.32h-14.32V0ZM121.94,4.32C121.94,1.93,123.93,0,126.38,0h7.72c2.45,0,4.44,1.93,4.44,4.32v9.68h-3.37v-4.36h-9.88v4.36h-3.37V4.32h0ZM135.18,4.32c0-.58-.48-1.04-1.07-1.04h-7.73c-.59,0-1.07.47-1.07,1.04v2.05h9.87v-2.05h0ZM119.66,5.32c0,1.6-.9,3-2.23,3.74l2.26,4.93h-3.68l-1.99-4.36h-6.44v4.36h-3.36V0h11.01c2.45,0,4.44,1.93,4.44,4.32v1.01h0,0ZM115.22,6.37c.59,0,1.07-.47,1.07-1.04v-1.01c0-.58-.48-1.04-1.07-1.04h-7.64v3.09h7.64ZM95.39,5.32c0,1.6-.9,3-2.23,3.74l2.26,4.93h-3.68l-2-4.36h-6.43v4.36h-3.36V0h11.01c2.45,0,4.44,1.93,4.44,4.32v1.01h0ZM90.95,6.37c.59,0,1.08-.47,1.08-1.04v-1.01c0-.58-.48-1.04-1.08-1.04h-7.64v3.09h7.64ZM60.72,4.32C60.72,1.93,62.71,0,65.16,0h7.72c2.45,0,4.44,1.93,4.44,4.32v9.68h-3.36v-4.36h-9.88v4.36h-3.37V4.32ZM73.96,4.32c0-.58-.48-1.04-1.07-1.04h-7.72c-.59,0-1.07.47-1.08,1.04v2.05h9.88v-2.05h0ZM59.67,0v3.27h-5.58v10.73h-3.43V3.27h-5.58V0h14.58ZM31.5,4.32c0,.58.48,1.04,1.07,1.04h6.99c2.45,0,4.44,1.93,4.44,4.32s-1.99,4.32-4.44,4.32h-10.9v-3.27h10.9c.59,0,1.07-.47,1.07-1.04,0-.58-.48-1.04-1.07-1.05h-6.99c-2.45,0-4.44-1.93-4.44-4.32S30.12,0,32.58,0h10.46v3.28h-10.46c-.59,0-1.07.47-1.07,1.04h0ZM19.73,5.36h5.35v3.27h-5.35v-3.27ZM4.44,14c-2.45,0-4.44-1.93-4.44-4.32v-5.36C0,1.93,1.99,0,4.44,0h11.98v3.28H4.44c-.59,0-1.07.47-1.07,1.04v5.36c0,.58.48,1.05,1.08,1.05h7.86c.6,0,1.07-.47,1.08-1.04v-1.05h-5.09v-3.27h8.46v4.32c0,2.39-1.99,4.32-4.44,4.32h-7.86Z" class="cls-1"></path>
  </g>
</svg>