<svg viewBox="0 0 200 56.12" xmlns="http://www.w3.org/2000/svg" data-name="Layer 2" id="Layer_2">
  <defs>
    <style>
      .cls-1 {
        fill: #707372;
      }

      .cls-1, .cls-2 {
        stroke-width: 0px;
      }

      .cls-2 {
        fill: #216245;
      }
    </style>
  </defs>
  <g data-name="Layer 1" id="Layer_1-2">
    <g data-name="hi logo" id="hi_logo">
      <path d="M57.5,48.34h1.86l2.53,7.65h-1.48l-.61-1.89h-2.92l-.6,1.89h-1.34l2.56-7.65ZM57.2,53.06h2.26l-1.12-3.55-1.13,3.55Z" class="cls-1" data-name="Path 774" id="Path_774"></path>
      <path d="M66.04,48.34h1.7l3.22,5.53v-5.53h1.3v7.65h-1.48l-3.45-5.86v5.86h-1.3v-7.65Z" class="cls-1" data-name="Path 775" id="Path_775"></path>
      <path d="M81.54,48.34h1.43v7.65h-1.43v-7.65Z" class="cls-1" data-name="Path 776" id="Path_776"></path>
      <path d="M87.39,48.34h1.42v3.25h3.44v-3.25h1.43v7.65h-1.43v-3.25h-3.44v3.25h-1.42v-7.65Z" class="cls-1" data-name="Path 777" id="Path_777"></path>
      <path d="M98.07,52.21v-.09c-.11-2.05,1.47-3.8,3.52-3.9.1,0,.2,0,.3,0,1.64,0,3.09.75,3.3,2.58h-1.43c-.11-.91-.93-1.56-1.84-1.46,0,0,0,0-.01,0-1.5,0-2.37,1.11-2.37,2.79v.09c0,1.64.76,2.76,2.37,2.76,1.02.11,1.94-.62,2.06-1.64.01-.09.01-.19.01-.28h-1.93v-1.07h3.33v.71c.13,1.75-1.19,3.28-2.94,3.41-.18.01-.37.01-.55,0-1.98.13-3.7-1.38-3.83-3.36-.01-.17,0-.35,0-.52Z" class="cls-1" data-name="Path 778" id="Path_778"></path>
      <path d="M114.54,48.34h1.42v3.25h3.44v-3.25h1.43v7.65h-1.43v-3.25h-3.44v3.25h-1.42v-7.65Z" class="cls-1" data-name="Path 779" id="Path_779"></path>
      <path d="M125.29,52.21v-.08c-.08-2.07,1.54-3.81,3.61-3.89.09,0,.18,0,.26,0,2.04-.09,3.77,1.5,3.85,3.54,0,.11,0,.21,0,.32v.08c.04,2.13-1.65,3.9-3.79,3.94-2.13.04-3.9-1.65-3.94-3.79,0-.04,0-.08,0-.12ZM131.54,52.19v-.08c0-1.57-.88-2.74-2.38-2.74s-2.39,1.1-2.39,2.75v.08c-.15,1.36.82,2.58,2.18,2.73.08,0,.16.01.23.02,1.44,0,2.36-1.1,2.36-2.76h0Z" class="cls-1" data-name="Path 780" id="Path_780"></path>
      <path d="M138.43,49.46h-2.13v-1.12h5.69v1.12h-2.12v6.52h-1.43v-6.52Z" class="cls-1" data-name="Path 781" id="Path_781"></path>
      <path d="M145.9,48.34h4.78v1.12h-3.36v2.1h2.7v1.07h-2.7v2.24h3.54v1.12h-4.97v-7.65Z" class="cls-1" data-name="Path 782" id="Path_782"></path>
      <path d="M154.86,48.34h1.42v6.51h3.26v1.13h-4.69v-7.65Z" class="cls-1" data-name="Path 783" id="Path_783"></path>
      <path d="M102.5,13.07c1-.03,1.83.76,1.86,1.76,0,.04,0,.08,0,.12-.08,1.54-1.32,2.76-2.85,2.83-.98.03-1.8-.75-1.82-1.73,0-.05,0-.1,0-.14.07-1.53,1.29-2.76,2.82-2.83ZM92.76,14.39c-.8,4-3.34,16.6-3.34,16.6-.16.69-1.07,4.32,2.63,4.32h.56l4.86-24.14c-2.14-.44-4.24.94-4.68,3.09,0,.05-.02.09-.03.14h0ZM98.53,22.79c-.82,3.91-1.65,8.2-1.65,8.2-.15.69-1.06,4.32,2.64,4.32h.55l3.16-15.7c-2.14-.44-4.23.94-4.67,3.08,0,.04-.01.07-.02.11h0ZM81.72,31.01c1.22-1.79,1.89-3.9,1.92-6.06,0-1.65-.62-2.83-2.25-2.83-1.05.06-2.02.62-2.6,1.5-1.23,1.79-1.9,3.89-1.92,6.06,0,1.65.65,2.83,2.29,2.83,1.04-.07,1.99-.62,2.56-1.5ZM81.88,19.33c3.43,0,5.91,1.87,5.91,5.58.08,3.2-1.25,6.27-3.62,8.41-1.55,1.3-3.52,2-5.54,1.97-3.44,0-5.92-1.91-5.92-5.62-.08-3.19,1.25-6.24,3.62-8.37,1.55-1.3,3.52-2,5.54-1.97h0ZM145.52,34.32c-1.16.48-2.39.75-3.65.81-2.23.26-3.74.64-3.74,2.22,0,1.24,1.18,1.93,2.6,1.93,1.1.02,2.17-.4,2.96-1.16.83-.88,1.4-1.97,1.67-3.14l.16-.65ZM148.02,22.83c.35-2.15,2.38-3.61,4.53-3.26.06,0,.11.02.17.03l-2.71,13.39c-.33,2.19-1.22,4.25-2.58,5.99-1.73,1.86-4.2,2.86-6.74,2.73-3.42,0-5.99-1.58-5.99-4.25,0-1.81,1.11-3.07,3.49-3.67-.65-.77-1-1.75-.96-2.76.06-.9.2-1.79.4-2.67.06-.27.51-2.55,1.11-5.53.35-2.15,2.38-3.61,4.53-3.26.06,0,.12.02.17.03l-1.79,8.89c-.15.76-1.02,3.68,1.56,3.68,2.89,0,3.64-3.67,4.04-5.6.01,0,.49-2.37.77-3.74h0ZM161.11,13.34c-.61,2.93-3.55,17.64-3.55,17.64-.19.85-1,4.32,2.63,4.32h.56l5.03-25.06c-2.12-.45-4.2.9-4.65,3.02,0,.03-.01.06-.02.09h0ZM175.58,19.33c-1.8,0-3.52.78-4.71,2.13,0,0-.14-3.05-4.07-1.84.71,2.14.32,2.89-.48,7.2l-.83,4.17c-.14.72-1.06,4.32,2.64,4.32h.55l1.46-7.24c.4-1.94,1.16-5.62,4.02-5.62,1.42,0,2.15.91,1.7,3.14l-1.09,5.4c-.15.69-1.09,4.32,2.63,4.32h.55l1.99-9.89c.89-4.23-1.25-6.08-4.36-6.08h0ZM69.01,13.53c-.18.92-.59,2.92-1.25,6.2l-6.83,1.4,2-9.96c-2.12-.45-4.21.9-4.66,3.03-.01.07-.03.13-.04.2-.22,1.13-3.35,16.6-3.35,16.6-.16.81-1.07,4.32,2.62,4.32h.57l1.97-9.79,6.83-1.39c-.68,3.37-1.39,6.86-1.39,6.86-.15.7-1.06,4.32,2.64,4.32h.56l5.05-25.06c-2.17-.42-4.28,1-4.7,3.17,0,.04-.01.08-.02.11ZM192.35,19.34c-1.8,0-3.52.78-4.71,2.13,0,0-.14-3.05-4.07-1.84.71,2.14.32,2.89-.48,7.2l-.83,4.17c-.14.72-1.06,4.32,2.64,4.32h.55l1.46-7.24c.4-1.94,1.16-5.62,4.02-5.62,1.42,0,2.15.91,1.71,3.14l-1.09,5.4c-.16.69-1.09,4.32,2.63,4.32h.55l1.99-9.89c.89-4.23-1.26-6.08-4.37-6.08ZM116.65,14.46c.32-2.16,2.33-3.66,4.49-3.34.08.01.15.02.23.04l-4.86,24.15h-.55c-1.16.15-2.27-.52-2.68-1.62-1.1,1.09-2.61,1.68-4.16,1.62-3.1,0-5.14-2.13-5.14-5.52-.12-5.65,4.37-10.32,10.02-10.44.03,0,.07,0,.1,0,.52,0,1.04.04,1.54.14-.04.19.64-3.13,1.01-5.02h0ZM115.09,22.25c-.38-.17-.79-.25-1.2-.24-3.16,0-5.72,3.97-5.72,7.65,0,1.81.83,2.79,2.22,2.79.86.02,1.68-.35,2.23-1.02.6-.83,1.01-1.78,1.17-2.79l1.29-6.39ZM131.39,22.24c-.28-.15-.6-.23-.92-.23-3.59,0-5.86,4.44-5.86,7.68,0,1.81.68,2.76,2.08,2.76.87.03,1.71-.35,2.26-1.01.59-.83.98-1.78,1.14-2.79l1.3-6.4ZM130.55,19.34c1.83.02,3.61.53,5.18,1.46l-2.92,14.51h-.55c-1.17.15-2.28-.52-2.69-1.63-1.1,1.1-2.61,1.69-4.16,1.63-3.1,0-4.98-2.09-4.98-5.49-.12-5.67,4.37-10.36,10.04-10.48.02,0,.05,0,.07,0h0ZM44.05,14.72c-.88-4.78-5.71-3.91-7.04-3.62-2.45.53-4.78,1.1-7,1.71,1.16-3.81,2.5-7.51,4.56-12.52-.94-.27-1.93-.35-2.9-.24-1.47.16-2.76,1.07-3.42,2.4-1.81,3.92-3.25,8.01-4.3,12.2-3.24,1.08-6.21,2.24-8.95,3.47,1.39-5.14,3.17-10.16,5.32-15.03-.59-.17-1.19-.26-1.8-.28-2.22,0-3.51.86-4.51,3.09-2.02,4.89-3.64,9.93-4.82,15.08-2.54,1.38-5,2.92-7.37,4.59-.97.66-1.62,1.69-1.8,2.84-.06.61.04,1.22.29,1.78,1.51-.92,4.21-2.49,7.81-4.28-.89,4.16-1.41,8.38-1.58,12.63-.18,1.54.92,2.94,2.47,3.12.14.02.28.02.42.02.51,0,1.02-.08,1.5-.25.51-6.11,1.45-12.18,2.82-18.15,2.68-1.18,5.65-2.37,8.85-3.49-.08.31-.15.61-.23.92-2.47,9.88-4.12,20.54-3.98,23.43-.05,1.74,1.31,3.19,3.05,3.24.06,0,.11,0,.17,0,.57,0,1.13-.1,1.67-.27.75-7.56,1.95-15.06,3.6-22.47.62-2.53,1.17-4.73,1.71-6.76,5.06-1.48,10.24-2.54,15.48-3.16h0ZM200,20.51c-.02.63-.54,1.13-1.17,1.11-.63-.02-1.13-.54-1.11-1.17.02-.62.52-1.11,1.15-1.11.61-.02,1.12.45,1.14,1.05,0,.04,0,.08,0,.12ZM199.81,20.51c-.03-.53-.49-.92-1.01-.89s-.92.49-.89,1.01c.03.5.45.89.95.89.51.02.93-.37.96-.88,0-.05,0-.09,0-.13ZM199.29,20.99s.06-.01.09-.03v.15s-.09.04-.13.04c-.09,0-.17-.04-.2-.13l-.2-.35h-.19v.47h-.21v-1.1h-.1v-.16h.49c.28,0,.47.12.47.38.01.17-.09.33-.26.38l.16.29s.05.06.07.06h0ZM199.1,20.27c0-.17-.09-.22-.29-.22h-.15v.47h.18c.19,0,.25-.1.25-.24h0ZM28.57,40.51c-.02.63-.54,1.13-1.17,1.11-.63-.02-1.13-.54-1.11-1.17.02-.62.53-1.12,1.15-1.11.61-.02,1.12.45,1.14,1.06,0,.04,0,.08,0,.12ZM28.38,40.51c-.03-.53-.49-.92-1.01-.89-.53.03-.92.49-.89,1.01.03.5.45.89.95.89.51.02.93-.37.96-.88,0-.05,0-.09,0-.13ZM27.86,40.99s.06-.01.09-.03v.15s-.09.04-.13.04c-.09,0-.17-.04-.2-.13l-.2-.35h-.19v.47h-.21v-1.1h-.1v-.16h.49c.28,0,.47.12.47.38.01.17-.09.33-.26.38l.16.29c.03.05.05.06.07.06ZM27.67,40.27c0-.17-.09-.22-.29-.22h-.16v.47h.18c.19,0,.26-.1.26-.24h0Z" class="cls-2" data-name="Path 784" id="Path_784"></path>
    </g>
  </g>
</svg>