<svg viewBox="0 0 81.33 60" xmlns="http://www.w3.org/2000/svg" data-name="Layer 2" id="Layer_2">
  <defs>
    <style>
      .cls-1 {
        fill: #d71440;
      }

      .cls-1, .cls-2 {
        fill-rule: evenodd;
        stroke-width: 0px;
      }

      .cls-2 {
        fill: #fffffe;
      }
    </style>
  </defs>
  <g data-name="Layer 1" id="Layer_1-2">
    <g id="po-logo">
      <path d="M40.67,59.07C18.77,59.07.96,46.03.96,30S18.77.93,40.67.93s39.71,13.04,39.71,29.07-17.81,29.07-39.71,29.07Z" class="cls-1" data-name="Path 817" id="Path_817"></path>
      <path d="M40.67,0c-10.76,0-20.9,3.06-28.55,8.61-3.57,2.52-6.58,5.76-8.82,9.52-4.39,7.3-4.39,16.43,0,23.74,2.25,3.75,5.25,6.99,8.82,9.52,7.65,5.55,17.79,8.61,28.55,8.61s20.9-3.06,28.55-8.61c3.57-2.52,6.58-5.77,8.82-9.52,4.39-7.3,4.39-16.43,0-23.73-2.24-3.75-5.25-7-8.82-9.52C61.57,3.06,51.43,0,40.67,0ZM40.67,1.85c21.4,0,38.75,12.6,38.75,28.15s-17.35,28.15-38.75,28.15S1.91,45.54,1.91,30,19.27,1.85,40.67,1.85Z" class="cls-2" data-name="Path 818" id="Path_818"></path>
      <path d="M48.35,36.45c-.01-3.49,2.8-6.32,6.29-6.33.07,0,.13,0,.2,0,1.35-.07,2.68.3,3.81,1.04v1.72c-1.12-.77-2.46-1.16-3.81-1.09-2.4-.12-4.45,1.72-4.57,4.12,0,.18,0,.36,0,.55-.11,2.47,1.8,4.56,4.27,4.66.1,0,.19,0,.29,0,1.36.08,2.7-.31,3.81-1.09v1.72c-1.13.74-2.46,1.1-3.81,1.03-3.44.14-6.34-2.53-6.48-5.96,0-.12,0-.25,0-.37Z" class="cls-2" data-name="Path 819" id="Path_819"></path>
      <path d="M60.76,30.43v12.05h8.4v-1.66h-6.59v-3.67h5.72v-1.67h-5.72v-3.4h6.27v-1.66h-8.08Z" class="cls-2" data-name="Path 820" id="Path_820"></path>
      <path d="M44.44,42.48h1.82v-12.05h-1.82v12.05Z" class="cls-2" data-name="Path 821" id="Path_821"></path>
      <path d="M24.94,30.43v12.05h1.82v-5.15h5.31v-1.66h-5.31v-3.58h5.95v-1.66h-7.77Z" class="cls-2" data-name="Path 822" id="Path_822"></path>
      <path d="M10.18,36.45c-.04,3.46,2.74,6.29,6.19,6.33.09,0,.19,0,.28,0,3.5.08,6.39-2.7,6.47-6.19.08-3.5-2.7-6.39-6.19-6.47-.09,0-.18,0-.28,0-3.46-.12-6.36,2.59-6.48,6.05,0,.09,0,.19,0,.28ZM12.1,36.45c-.11-2.46,1.79-4.55,4.26-4.67.1,0,.2,0,.3,0,2.47-.06,4.51,1.9,4.57,4.36,0,.1,0,.21,0,.31.11,2.46-1.79,4.55-4.25,4.66-.1,0-.21,0-.31,0-2.47.05-4.51-1.9-4.56-4.37,0-.1,0-.2,0-.3h0Z" class="cls-2" data-name="Path 823" id="Path_823"></path>
      <path d="M34.64,30.43v12.05h1.82v-5.15h5.31v-1.66h-5.31v-3.58h5.95v-1.66h-7.77Z" class="cls-2" data-name="Path 824" id="Path_824"></path>
      <path d="M44.88,17.77c0,2.68,1.96,3.24,3.68,3.77,1.28.4,2.49.8,2.49,1.94s-1.34,1.8-2.49,1.82c-1.25-.05-2.45-.47-3.47-1.19v1.76c.98.76,2.19,1.17,3.43,1.16,2.56-.02,4.42-1.56,4.42-3.76,0-2.39-1.93-2.89-3.56-3.38-1.38-.41-2.64-.8-2.64-2.12,0-.64.55-1.74,2.38-1.74,1.02-.02,2.01.28,2.84.87l.12.08v-1.77c-.88-.59-1.92-.89-2.97-.85-3.09,0-4.24,2.09-4.24,3.4Z" class="cls-2" data-name="Path 825" id="Path_825"></path>
      <path d="M53.62,14.67v1.66h3.96v10.39h1.82v-10.39h3.96v-1.66h-9.73Z" class="cls-2" data-name="Path 826" id="Path_826"></path>
      <path d="M30.64,20.7c-.04,3.46,2.73,6.29,6.19,6.33.1,0,.19,0,.29,0,3.5.08,6.39-2.7,6.47-6.19.08-3.5-2.7-6.39-6.19-6.47-.09,0-.18,0-.28,0-3.46-.12-6.36,2.59-6.48,6.05,0,.09,0,.19,0,.28ZM32.56,20.7c-.06-2.52,1.93-4.61,4.44-4.68s4.61,1.93,4.68,4.44c0,.08,0,.16,0,.23.06,2.52-1.93,4.61-4.44,4.68s-4.61-1.93-4.68-4.44c0-.08,0-.16,0-.23Z" class="cls-2" data-name="Path 827" id="Path_827"></path>
      <path d="M21.29,14.67v12.05h1.82v-4.88h2.58c3.73,0,4.02-2.75,4.02-3.59s-.29-3.58-4.02-3.58h-4.4ZM25.4,16.23c.95,0,2.56.27,2.56,2.02s-1.61,2.02-2.56,2.02h-2.3v-4.04h2.3Z" class="cls-2" data-name="Path 828" id="Path_828"></path>
    </g>
  </g>
</svg>