<svg viewBox="0 0 45.51 60" xmlns="http://www.w3.org/2000/svg" data-name="Layer 2" id="Layer_2">
  <defs>
    <style>
      .cls-1 {
        fill: #000;
        stroke-width: 0px;
      }
    </style>
  </defs>
  <g data-name="Layer 1" id="Layer_1-2">
    <path d="M26.16,9.16h-8.51v17.16c-1.08.51-2.2.94-3.35,1.28-.59.17-1.25.33-1.94.46V9.92s.15-2.6-1.3-3.48v-.33h13.59c.71.9,1.23,1.93,1.51,3.04ZM28.56,32.64c6.16-2.95,9.13-8.15,9.18-14.11.04-4.06-1.39-6.55-2.99-7.87-.09-.08-.19-.15-.29-.22-.11-.48-.24-.94-.39-1.41-.3-.91-.68-1.8-1.14-2.64.29.04.57.09.81.14,4.63.82,8.41,4.18,9.76,8.68,1.41,4.59.58,9.57-2.26,13.44-1.35,1.75-2.94,3.3-4.72,4.6-.39.28-.62.43-1.03.69,2.37,3.59,4.3,7.45,5.74,11.5,1.23,3.54,2.16,7.17,2.79,10.86.37,3.06,1.29,3.3,1.5,3.36v.33h-10.74v-.33c.33-.17,3.23-1.37,3.25-5.92-.11-3.82-.88-7.59-2.28-11.15-.9-2.43-1.97-4.79-3.19-7.07l-.04-.05c-.71.31-1.44.57-2.18.8-.56-1.29-1.13-2.46-1.77-3.65h0ZM17.66,32.28v2.79c1.89-.11,3.77-.34,5.64-.69.52,1.17.97,2.28,1.28,3.14l.04.12c-.94.15-1.94.29-3.07.42-1.53.17-3.01.27-3.88.33v18.03c0,.4.09,2.52,1.48,3.26v.33h-8.25v-.33c1.34-.71,1.48-2.87,1.48-3.26v-23.17c1.78-.22,3.55-.54,5.29-.96h0ZM18.8,3.12l-1.16-.02H6.91v26.44c2.57-.14,5.13-.52,7.63-1.15,8.66-2.56,12.8-8.62,12.86-15.73.04-4.14-1.42-6.68-3.06-8.03-.98-.75-2.13-1.22-3.35-1.38-.73-.09-1.46-.13-2.2-.12ZM1.51,51.39V3.89S1.66,1.23.18.33V0h18.36c1.6,0,3.19.14,4.77.42,4.73.83,8.59,4.26,9.96,8.86,1.44,4.68.59,9.76-2.31,13.71-1.38,1.79-3,3.37-4.82,4.7-.4.28-.64.44-1.06.7,2.42,3.66,4.39,7.6,5.86,11.74,1.26,3.61,2.21,7.32,2.85,11.09.38,3.12,1.31,3.43,1.53,3.5v.33h-10.96v-.33c.34-.18,3.3-1.46,3.32-6.1-.11-3.9-.9-7.75-2.33-11.38-.92-2.48-2.01-4.89-3.26-7.22l-.03-.05c-2.11.85-4.3,1.5-6.53,1.94-1.43.27-2.87.49-4.66.69-1.56.17-3.07.28-3.96.33v18.46c0,.4.1,2.57,1.51,3.33v.33H0v-.33c1.37-.73,1.51-2.93,1.51-3.34Z" class="cls-1" id="download"></path>
  </g>
</svg>