<svg viewBox="0 0 174.52 77.6" xmlns="http://www.w3.org/2000/svg" data-name="Layer 2" id="Layer_2">
  <defs>
    <style>
      .cls-1 {
        fill: #db2b39;
        stroke-width: 0px;
      }
    </style>
  </defs>
  <g data-name="Layer 1" id="Layer_1-2">
    <path d="M169.8,40.88h0c-2.28-2.45-4.96-4.44-7.99-5.77-5.7-2.51-11.48-4.83-17.25-7.17-4.63-1.87-9.23-3.78-13.18-6.92-3.16-2.51-4.22-6.86-2.56-10.54,1.87-4.13,5.15-6.61,9.59-7.2,7.34-.98,11.38,1.72,13.19,7.86.43,1.44.86,2.88,1.34,4.3,1.45,4.34,5.72,7.22,10.28,6.72,5.01-.55,7.8-4.71,6.3-9.47-1.28-4.07-4.29-6.62-7.89-8.54-5.99-3.17-12.49-4.05-19.18-4.16-2.03.15-4.06.23-6.08.46-4.86.54-9.46,1.96-13.62,4.58-4.93,3.1-8.15,7.52-9.4,12.63-.1.41.05.84.36,1.12,2.39,2.18,4.17,4.78,5.3,7.79,1.13,3,1.32,5.95.58,8.77-.1.4-.23.79-.37,1.17-.16.44-.03.93.32,1.24,1.03.88,2.15,1.7,3.34,2.46,5.08,3.22,10.75,5.11,16.31,7.25,4.26,1.64,8.57,3.18,12.22,6.04,2,1.57,3.56,3.46,4.08,6.05,1.16,5.71-2.23,11.92-7.71,14.08-2.26.9-4.63,1.19-6.87.93,0,0-.78-.09-1.13-.17-1.65-.39-6.75-1.6-10.34-10.81-2.07-5.31-5.02-15.69-14.55-11.05-1.99.97-3.6,2.99-4.03,5.6-.06.36.3.67.64.54.25-.09.52-.17.81-.24.49-.11,1.03-.17,1.56-.17,1.69,0,3.13.57,4.17,1.65,1.83,1.89,1.81,4.95.73,6.83l-.11.19c-.5.87-1.01,1.75-1.6,2.62-.19.28-.15.66.11.87,1.19.97,2.56,1.95,4.13,2.91,3.06,1.86,10.03,4.26,19.59,4.26h0c3.6.07,7.23-.16,10.87-.66,3.92-.53,7.7-1.59,11.2-3.47,7.29-3.93,10.79-10.25,11.47-18.33.45-5.4-.88-10.22-4.63-14.25h0Z" class="cls-1"></path>
    <path d="M59.07,40.88h0c-2.28-2.46-4.96-4.44-7.99-5.78-5.7-2.51-11.48-4.83-17.25-7.17-4.62-1.87-9.21-3.77-13.16-6.9-3.57-2.83-4.47-6.32-2.62-10.48,1.86-4.17,5.16-6.68,9.62-7.28,7.34-.98,11.38,1.72,13.19,7.86.45,1.51.91,3.02,1.41,4.52,1.75,5.17,4.98,7.18,10.39,6.48,4.9-.63,7.6-4.74,6.12-9.45-1.28-4.07-4.29-6.62-7.89-8.54C44.89.98,38.39.1,31.7,0c-2.03.15-4.06.23-6.08.46-4.86.54-9.46,1.96-13.62,4.58C4.02,10.05.51,18.5,2.57,27.74c1.25,5.61,4.84,9.49,9.55,12.47,5.08,3.22,10.75,5.11,16.31,7.25,4.26,1.64,8.57,3.18,12.22,6.04,2,1.57,3.56,3.46,4.08,6.05,1.16,5.71-2.23,11.92-7.71,14.08-2.26.9-4.63,1.19-6.87.93,0,0-.78-.09-1.13-.17-1.65-.39-6.75-1.6-10.34-10.81-2.07-5.31-5.02-15.69-14.55-11.05-5.19,2.53-7.82,12.11,6.42,20.8,3.06,1.86,10.03,4.26,19.59,4.26h0c3.6.07,7.23-.16,10.87-.66,3.92-.53,7.7-1.59,11.2-3.47,7.29-3.93,10.79-10.25,11.47-18.33.45-5.4-.88-10.22-4.63-14.25h0Z" class="cls-1"></path>
    <path d="M101.72,66.57c-8.45.35-14.95-3.23-19.46-10.31-3.34-5.24-4.4-11.14-4.45-17.26-.09-3.39.36-6.7,1.37-9.93,1.11-3.54,2.75-6.76,5.86-9h0c5.47-3.95,12.03-1.81,13.96,4.52.13.41.22.84.31,1.26.5,2.58.91,5.18,1.51,7.74.7,3,2.23,5.28,5.57,5.86,4.2.73,7.82-1.38,8.84-5.26.54-2.06.3-4.08-.44-6.05-1.69-4.5-5.04-7.42-9.25-9.4-6.05-2.86-12.49-3.37-19.08-2.62-5.8.66-11.28,3.04-15.55,7.02-4.27,3.98-7.25,8.6-8.78,13.58-.12.4,0,.83.28,1.13,9.11,9.66,5.31,22.38,3.97,26-.13.35-.08.74.13,1.04,6.01,8.68,16.26,13.6,27.86,12.57,7.16-.64,13.13-3.67,17.89-9.03,1.04-1.17,3.51-4.45,2.55-5.41-1.59-1.59-5.15,3.17-13.1,3.55h0Z" class="cls-1"></path>
  </g>
</svg>