<svg viewBox="0 0 96.69 96.87" xmlns="http://www.w3.org/2000/svg" data-name="Layer 2" id="Layer_2">
  <defs>
    <style>
      .cls-1 {
        fill: #006341;
      }

      .cls-1, .cls-2 {
        stroke-width: 0px;
      }

      .cls-2 {
        fill: #fff;
      }
    </style>
  </defs>
  <g data-name="Layer 1" id="Layer_1-2">
    <g>
      <circle r="48.34" cy="48.34" cx="48.34" class="cls-2"></circle>
      <path d="M53.21,20.9c-.42-.08-2.47-.42-4.86-.42s-4.44.34-4.86.42c-.24.04-.34-.19-.15-.33.17-.12,5.01-3.81,5.01-3.81l5.01,3.81c.19.14.1.38-.15.33ZM44.84,44.84s-.26.09-.32.32c1.02.78,1.71,2.55,3.83,2.55s2.82-1.77,3.83-2.55c-.07-.23-.32-.32-.32-.32,0,0-1.32.31-3.51.31s-3.51-.31-3.51-.31ZM48.34,41.85c-.59,0-.72-.22-1.12-.22-.38,0-1.12.31-1.28.58,0,.14.07.28.17.38.86.13,1.24.61,2.24.61s1.38-.48,2.24-.61c.1-.1.15-.24.17-.38-.16-.28-.9-.58-1.29-.59-.4,0-.53.22-1.12.22ZM96.61,51c-.06,1.15-.16,2.29-.31,3.43-5.47.91-7.43-3.97-13.03-3.72.33,1.19.61,2.4.82,3.64,4.62,0,6.49,4.32,11.63,3.68-.27,1.32-.59,2.62-.97,3.91-4.07.4-5.5-3.64-10.21-3.53.04.67.06,1.35.06,2.03l-.02,1.13,9.14,3.49c-.48,1.3-1.01,2.57-1.6,3.82-2.75-.15-3.7-3.68-7.88-3.4-.13.9-.29,1.8-.48,2.68,3.63-.26,4.41,3.09,7.01,3.36-.66,1.21-1.37,2.38-2.13,3.53-1.54-.82-2.88-3.31-5.8-3.47.3-.93.56-1.86.78-2.82-2.59,0-5.55-1.01-8.04-3.27.8-4.59-6.31-9.25-6.31-12.61,0-3.65,1.85-5.67,1.85-10.59,0-3.65-1.77-7.61-4.45-10.31-.5-.51-1.05-.96-1.66-1.33,2.46,3.04,4.34,6.64,4.34,10.82,0,4.63-2.16,7.07-2.16,11.35s6.25,7.97,6.25,12.38c0,1.73-.55,3.43-2.38,6.75,2.81,2.8,6.46,4.33,8.82,4.33.77,0,1.18-.23,1.45-.83.24-.52.46-1.04.67-1.58,2.54.1,3.71,2.41,5.11,3.33-.77,1.03-1.58,2.04-2.43,3-.94-1.04-2.21-2.8-4.06-3.29-.33.64-.68,1.28-1.05,1.9,1.6.43,2.69,2.05,3.54,3.11-.91.94-1.86,1.85-2.85,2.72-.62-.96-1.58-2.18-2.65-2.83-.4.54-.81,1.06-1.24,1.57.91.62,1.72,1.74,2.25,2.65-1.14.91-2.32,1.78-3.54,2.6-.6-4.91-7.3-8.28-5.5-13.97-.59,1-1.3,2.26-1.3,3.77,0,4.12,4.39,7.39,4.74,11.49-.91.54-1.84,1.06-2.79,1.54-.16-4.51-4.81-9.43-4.81-13.13,0-4.13,5.4-8.27,5.4-13.14s-6.23-8.25-6.23-12.53,2.65-6.74,2.65-12.22c0-4.02-1.91-8.08-4.86-10.68-.5-.45-1.06-.84-1.65-1.15,2.78,3.33,4.39,6.36,4.39,10.95,0,5.15-3.04,8.02-3.04,13.06s6.12,7.86,6.12,12.56-5.7,8.67-5.7,13.51c0,4.4,5.02,8.79,5.09,14-1.1.48-2.22.92-3.35,1.31.64-5.27-5.01-10.71-5.01-15.01,0-4.7,5.91-8.74,5.91-13.81s-6.01-7.43-6.01-12.64,3.68-8.08,3.68-13.83c0-4.48-2.21-8.51-5.44-11.01l-.2-.15c-.3-.23-.56.05-.34.31,2.29,2.86,3.51,5.75,3.51,10.03,0,5.26-4.23,9.53-4.23,14.63,0,6.01,5.69,7.73,5.69,12.67s-6.1,8.88-6.1,14.12c0,4.86,5.77,10.25,4.78,15.85-1.16.3-2.33.56-3.52.77,1.08-6.98-4.58-11.99-4.58-16.56,0-4.95,6.31-9.35,6.31-14.18,0-4.56-4.53-6.05-5.13-10.71-.08-.64-.59-1.11-1.3-.99-.92.17-2.1.77-3.95.77s-3.03-.61-3.95-.77c-.7-.12-1.21.36-1.3.99-.59,4.66-5.13,6.15-5.13,10.71,0,4.83,6.31,9.24,6.31,14.18,0,4.57-5.66,9.58-4.58,16.56-1.19-.22-2.36-.48-3.52-.77-.99-5.61,4.78-11,4.78-15.85,0-5.24-6.1-9.18-6.1-14.12s5.69-6.65,5.69-12.67c0-5.09-4.23-9.37-4.23-14.63,0-4.28,1.22-7.17,3.51-10.03.22-.27-.04-.54-.34-.31l-.2.16c-3.23,2.49-5.44,6.52-5.44,11,0,5.75,3.69,8.63,3.69,13.83s-6.01,7.56-6.01,12.64,5.91,9.11,5.91,13.81c0,4.3-5.65,9.74-5.01,15.01-1.13-.39-2.25-.83-3.35-1.31.08-5.22,5.09-9.61,5.09-14,0-4.83-5.69-8.8-5.69-13.51s6.11-7.51,6.11-12.56-3.04-7.91-3.04-13.06c0-4.59,1.61-7.61,4.39-10.95-.62.32-1.13.69-1.65,1.15-2.95,2.6-4.85,6.66-4.85,10.68,0,5.48,2.65,7.94,2.65,12.22s-6.23,7.65-6.23,12.53,5.4,9.02,5.4,13.14c0,3.7-4.65,8.63-4.81,13.13-.95-.48-1.88-1-2.79-1.54.35-4.1,4.74-7.37,4.74-11.49,0-1.51-.7-2.77-1.3-3.77,1.81,5.7-4.9,9.06-5.5,13.97-1.22-.81-2.4-1.68-3.54-2.59.53-.91,1.33-2.03,2.25-2.65-.43-.51-.84-1.04-1.24-1.58-1.08.66-2.04,1.88-2.66,2.84-.98-.87-1.93-1.78-2.85-2.72.85-1.06,1.94-2.67,3.54-3.11-.37-.62-.72-1.26-1.05-1.9-1.85.49-3.12,2.24-4.06,3.29-.85-.97-1.66-1.97-2.43-3.01,1.41-.92,2.57-3.23,5.11-3.33.21.53.44,1.05.67,1.57.27.6.69.83,1.45.83,2.36,0,6.01-1.53,8.82-4.33-1.83-3.33-2.38-5.02-2.38-6.75,0-4.41,6.25-8.1,6.25-12.38s-2.15-6.72-2.15-11.35c0-4.17,1.89-7.78,4.34-10.81-.61.38-1.14.81-1.66,1.33-2.67,2.71-4.45,6.66-4.45,10.31,0,4.92,1.85,6.94,1.85,10.58,0,3.36-7.12,8.03-6.31,12.61-2.48,2.26-5.45,3.27-8.04,3.27.22.95.49,1.89.78,2.82-2.92.15-4.25,2.64-5.8,3.47-.76-1.15-1.47-2.32-2.13-3.53,2.6-.27,3.38-3.61,7.01-3.36-.19-.88-.35-1.78-.48-2.68-4.18-.28-5.13,3.24-7.88,3.39-.59-1.25-1.12-2.52-1.6-3.82l9.14-3.49-.02-1.13c0-.68.02-1.36.06-2.03-4.71-.11-6.14,3.93-10.21,3.53-.38-1.29-.7-2.59-.97-3.91,5.14.64,7.01-3.68,11.63-3.68.21-1.24.48-2.45.82-3.64-5.61-.24-7.56,4.63-13.03,3.73-.14-1.14-.24-2.29-.3-3.43,6.36.71,8.74-4.52,14.53-3.88.55-1.38,1.18-2.72,1.9-4.01-7.26-1.28-9.73,4.8-16.49,3.86C.75,20.9,22.11,0,48.34,0s47.59,20.9,48.32,46.97c-6.76.93-9.22-5.14-16.48-3.86.71,1.29,1.35,2.63,1.9,4.01,5.79-.64,8.17,4.59,14.53,3.88ZM27.56,30.72c-3.56-1.46-7.87-1.12-11.55,1.24-.57-3.42-2.43-6.47-5.07-8.3-.37-.25-.75-.01-.71.41.56,7.23-3.67,13.52-8.87,19.04,5.36,1.61,9.92-5.29,16.88-2.88,2.5-3.72,5.66-6.94,9.33-9.51ZM48.34,26.34c-4.49,0-8.25,2.54-9.23,5.82-.08.25.03.42.32.29.86-.37,1.79-.55,2.72-.54,1.83,0,3.44.67,4.4,1.84.42,1.39.46,3.41-.02,4.56-.75-.17-1.02-.75-1.76-.75s-1.31.52-2.55.52-1.39-.59-2.22-.59c-.96,0-1.14.99-1.14,2.12,0,5,4.6,11.88,9.49,11.88s9.48-6.88,9.48-11.88c0-1.12-.23-2.08-1.24-2.21-.5.36-.97.69-2.12.69-1.25,0-1.59-.52-2.33-.52-.89,0-.8,1.87-1.85,1.98-.7-1.69-.74-3.85-.15-5.78.96-1.17,2.57-1.84,4.4-1.84,1,0,1.92.18,2.72.54.29.13.39-.03.32-.28-.98-3.28-4.74-5.82-9.23-5.82ZM55.49,33.52c-1.08,0-2.34.33-3.13,1.21-.09.27-.08.57.03.84,1.95-.67,3.67-.7,4.5.23.44-.4.59-.77.59-1.18,0-.65-.66-1.1-1.99-1.1ZM39.79,35.8c.94-.94,2.93-.9,4.99-.14.09-1.02-1.74-2.14-3.58-2.14-1.33,0-1.99.45-1.99,1.1,0,.42.14.78.58,1.18h0ZM70.72,18.88c-3.54.25-6.62,1.47-9.11,3.5,1.01-2.88,2.39-5.63,4.1-8.16-4.51.48-8.28,2.13-11.04,4.95l-2.15-5.65,4.78-4.22-6.4-.45-2.56-5.95-2.56,5.95-6.4.45,4.78,4.22-2.15,5.65c-2.75-2.82-6.53-4.47-11.04-4.95,1.71,2.53,3.09,5.28,4.1,8.16-2.49-2.03-5.56-3.25-9.11-3.5,2.12,2.73,4.01,5.65,5.4,8.78.16.35.5.47.86.29,5.01-2.49,10.52-3.78,16.11-3.77,5.79,0,11.25,1.36,16.11,3.77.37.18.7.07.86-.29,1.4-3.13,3.28-6.05,5.41-8.78h0ZM78.46,40.23c6.95-2.41,11.52,4.49,16.88,2.88-5.2-5.52-9.43-11.8-8.87-19.04.03-.42-.35-.67-.71-.41-2.65,1.83-4.51,4.88-5.07,8.3-3.68-2.36-7.99-2.7-11.55-1.24,3.67,2.57,6.83,5.79,9.33,9.51ZM84.75,90.26h-2.46v6.61h-.88v-6.61h-2.45v-.82h5.79v.82h0ZM85.79,89.43h1.31l2.53,5.83h.02l2.54-5.83h1.29v7.44h-.89v-6.23h-.02l-2.66,6.23h-.54l-2.67-6.23h-.02v6.23h-.88v-7.44h0Z" class="cls-1"></path>
    </g>
  </g>
</svg>