<svg viewBox="0 0 248.98 44.6" xmlns="http://www.w3.org/2000/svg" data-name="Layer 2" id="Layer_2">
  <defs>
    <style>
      .cls-1 {
        fill: #0c0520;
      }

      .cls-1, .cls-2, .cls-3 {
        stroke-width: 0px;
      }

      .cls-2 {
        fill: #f68d39;
      }

      .cls-3 {
        fill: #00b3e6;
      }
    </style>
  </defs>
  <g data-name="Layer 1" id="Layer_1-2">
    <g data-name="Stobart Logo" id="Stobart_Logo">
      <path d="M26.72,13.19V.44c-2.88-.58-5.84-.58-8.72-.02v12.77h8.72Z" class="cls-3" data-name="Path 6035" id="Path_6035"></path>
      <path d="M18,31.41v12.77c2.88.56,5.84.55,8.72-.02v-12.75h-8.72Z" class="cls-2" data-name="Path 6036" id="Path_6036"></path>
      <path d="M34.42,13.19v4.69l7.03-7.02c-1.51-2.52-3.5-4.72-5.86-6.47l-8.8,8.8h7.63Z" class="cls-2" data-name="Path 6037" id="Path_6037"></path>
      <path d="M34.42,31.41h-7.63l8.8,8.8c2.36-1.75,4.35-3.95,5.86-6.47l-7.03-7.03v4.7Z" class="cls-2" data-name="Path 6038" id="Path_6038"></path>
      <path d="M10.18,25.67v-6.74c0-.33.03-.66.09-.99H.43c-.57,2.88-.57,5.84,0,8.72h9.84c-.06-.33-.08-.66-.09-.99" class="cls-3" data-name="Path 6039" id="Path_6039"></path>
      <path d="M15.93,31.41c-2.73-.03-5.08-1.96-5.64-4.64v-.02l-.02.02-7.07,7.06c1.52,2.51,3.52,4.7,5.89,6.44l8.86-8.86h-2.03Z" class="cls-3" data-name="Path 6040" id="Path_6040"></path>
      <path d="M9.09,4.34c-2.36,1.74-4.36,3.93-5.88,6.45l7.06,7.06.02.02v-.03c.54-2.69,2.9-4.64,5.64-4.64h2.01L9.09,4.34Z" class="cls-3" data-name="Path 6041" id="Path_6041"></path>
      <path d="M44.18,17.94H14.94v8.72h29.24c.57-2.88.57-5.84,0-8.72" class="cls-2" data-name="Path 6042" id="Path_6042"></path>
      <path d="M135.84,25.67c0,3.17-2.57,5.74-5.74,5.74h-14.13c-3.17,0-5.74-2.57-5.74-5.74v-6.74c0-3.17,2.57-5.74,5.74-5.74h14.13c3.17,0,5.74,2.57,5.74,5.74v6.74ZM131.09,17.94h-16.11v8.72h16.11v-8.72Z" class="cls-1" data-name="Path 6043" id="Path_6043"></path>
      <path d="M164.33,25.67c0,3.17-2.57,5.74-5.74,5.74h-19.87V6.93h4.75v6.26h15.12c3.17,0,5.74,2.57,5.74,5.74v6.73ZM159.57,17.94h-16.11v8.72h16.11v-8.72Z" class="cls-1" data-name="Path 6044" id="Path_6044"></path>
      <path d="M192.84,31.41h-20.73c-3.17,0-5.74-2.57-5.74-5.75,0-3.17,2.57-5.74,5.74-5.74h15.98v-1.98h-20.86v-4.75h19.87c3.17,0,5.74,2.57,5.74,5.74v12.48ZM188.08,24.68h-16.97v1.98h16.97v-1.98Z" class="cls-1" data-name="Path 6045" id="Path_6045"></path>
      <path d="M221.47,23.09h-4.75v-5.15h-16.24v13.47h-4.75V13.19h20.01c3.17,0,5.74,2.57,5.74,5.74v4.16Z" class="cls-1" data-name="Path 6046" id="Path_6046"></path>
      <path d="M79.93,24.48h0c0,3.83-3.1,6.93-6.93,6.93h-17.88v-4.75h19.67v-4.35h-13.62c-3.83,0-6.93-3.1-6.93-6.93h0c0-3.83,3.1-6.93,6.93-6.93h17.86v4.75h-19.65v4.35h13.62c3.83,0,6.93,3.1,6.93,6.93Z" class="cls-1" data-name="Path 6047" id="Path_6047"></path>
      <path d="M107.3,31.41h-18.89c-3.17,0-5.74-2.57-5.75-5.74V8.45l4.75-1.51v6.26h19.88v4.75h-19.88v8.72h19.88v4.75Z" class="cls-1" data-name="Path 6048" id="Path_6048"></path>
      <path d="M248.98,31.41h-18.89c-3.17,0-5.74-2.57-5.74-5.74V8.45l4.76-1.51v6.26h19.88v4.75h-19.88v8.72h19.88v4.75Z" class="cls-1" data-name="Path 6049" id="Path_6049"></path>
    </g>
  </g>
</svg>