<svg viewBox="0 0 160.86 60.01" xmlns="http://www.w3.org/2000/svg" data-name="Layer 2" id="Layer_2">
  <defs>
    <style>
      .cls-1, .cls-2 {
        fill: #1d1d1b;
        stroke-width: 0px;
      }

      .cls-2 {
        fill-rule: evenodd;
      }
    </style>
  </defs>
  <g data-name="Layer 1" id="Layer_1-2">
    <g id="logo">
      <g data-name="Group 1531" id="Group_1531">
        <g data-name="Group 1530" id="Group_1530">
          <path d="M158.19,36.42c1.46-.02,2.65,1.15,2.67,2.6,0,.01,0,.02,0,.04,0,1.47-1.19,2.67-2.67,2.67-1.47,0-2.67-1.19-2.67-2.67h0c0-1.46,1.18-2.64,2.63-2.64.01,0,.02,0,.04,0ZM158.19,41.31c1.25-.05,2.23-1.11,2.17-2.36-.05-1.18-.99-2.12-2.17-2.17-1.2-.01-2.18.95-2.19,2.14,0,.04,0,.07,0,.11-.05,1.21.89,2.23,2.1,2.28.03,0,.06,0,.09,0ZM157.16,37.51h1.19c.74,0,1.09.29,1.09.9.03.43-.3.81-.73.83-.02,0-.04,0-.07,0l.9,1.38h-.52l-.84-1.32h-.55v1.32h-.48v-3.12ZM157.64,38.86h.52c.42,0,.8-.03.8-.51,0-.42-.35-.48-.68-.48h-.64v1Z" class="cls-1" data-name="Path 785" id="Path_785"></path>
        </g>
        <path d="M27.51,40.79H8.85v-1.35h2.03c1.1.09,2.21-.11,3.22-.58.59-.42,1-1.05,1.13-1.77.23-2.01.31-4.03.26-6.05V5.15h-5.34c-1.59-.05-3.19.06-4.76.32-.95.38-1.74,1.09-2.22,1.99-.87,1.61-1.42,3.37-1.64,5.18l-.03.13H0L.19,3.64h35.23l.19,9.14h-1.41l-.03-.13c-.22-1.83-.8-3.6-1.71-5.21-.5-.88-1.3-1.57-2.25-1.93-1.1-.31-2.24-.43-3.38-.35h-5.79v25.9c-.04,1.89.02,3.78.19,5.66.06.81.44,1.56,1.06,2.09,1.01.51,2.15.72,3.28.61h1.93v1.38h0Z" class="cls-1" data-name="Path 786" id="Path_786"></path>
        <path d="M86.26,40.79h-12.1v-1.32h.71c.77.06,1.55-.08,2.25-.42.4-.27.68-.68.77-1.16.13-1.62.17-3.24.13-4.86v-6.31c0-2.48-.03-4.18-.1-4.76-.03-.52-.29-1-.71-1.32-.72-.39-1.54-.56-2.35-.48h-.7v-1.22h.13c2.26-.33,4.49-.87,6.66-1.61l.13-.03.03.13c.55,1.83.84,3.72.87,5.63.6-1.55,1.56-2.94,2.8-4.05,1.16-1,2.62-1.59,4.15-1.67,1.1-.06,2.17.37,2.93,1.16.64.63,1.02,1.48,1.06,2.38,0,.54-.2,1.06-.58,1.45-.35.4-.85.62-1.38.61-.96,0-1.71-.71-2.19-2.09-.32-.87-.74-1.26-1.35-1.26-1.06.17-2.02.72-2.7,1.54-.97.87-1.68,2-2.06,3.25-.34,1.53-.49,3.1-.45,4.67v3.96c0,2.48.03,4.09.1,4.67.03.52.29,1,.71,1.32.72.38,1.54.53,2.35.45h.9v1.35Z" class="cls-1" data-name="Path 787" id="Path_787"></path>
        <path d="M66.6,40.79h-12.1v-1.32h.71c.77.06,1.55-.08,2.25-.42.4-.27.68-.68.77-1.16.13-1.62.17-3.24.13-4.86v-6.31c0-2.48-.03-4.18-.1-4.76-.03-.52-.29-1-.71-1.32-.72-.39-1.54-.56-2.35-.48h-.7v-1.22h.13c2.26-.33,4.49-.87,6.66-1.61l.13-.03.03.13c.55,1.83.84,3.72.87,5.63.6-1.55,1.56-2.94,2.8-4.05,1.16-1,2.62-1.59,4.15-1.67,1.1-.06,2.17.37,2.93,1.16.64.63,1.02,1.48,1.06,2.38,0,.54-.2,1.06-.58,1.45-.35.4-.85.62-1.38.61-.96,0-1.71-.71-2.19-2.09-.32-.87-.74-1.26-1.35-1.26-1.06.17-2.02.72-2.7,1.54-.97.87-1.68,2-2.06,3.25-.34,1.53-.49,3.1-.45,4.67v3.96c0,2.48.03,4.09.1,4.67.03.52.29,1,.71,1.32.72.38,1.54.53,2.35.45h.9v1.35h0Z" class="cls-1" data-name="Path 788" id="Path_788"></path>
        <path d="M147.22,41.69c-1.8,0-3.57-.93-5.47-2.9-.49.81-.85,1.69-1.06,2.61l-.03.1h-1.29v-7.59h1.29l.03.1c1.22,4.15,3.38,6.24,6.47,6.24,1.13.08,2.23-.36,2.99-1.19.63-.75.99-1.69,1-2.67.04-1.03-.34-2.03-1.06-2.77-1.28-1.1-2.73-2-4.28-2.67-1.81-.8-3.46-1.91-4.89-3.28-1.01-1.08-1.55-2.51-1.51-3.99.03-1.57.6-3.08,1.61-4.28,1.1-1.37,2.78-2.14,4.54-2.06,1.74,0,3.15.77,4.6,2.54.47-.63.86-1.33,1.16-2.06l.03-.1h1.22v7.14h-1.26l-.03-.1c-.33-1.55-1.05-2.99-2.09-4.18-.87-1.09-2.18-1.73-3.57-1.74-.94-.04-1.86.31-2.54.97-.62.58-.97,1.4-.96,2.25,0,.93.38,1.82,1.06,2.45,1.23,1.04,2.62,1.86,4.12,2.44,3.09,1.42,5.02,2.8,5.73,4.15.67,1.2,1.03,2.55,1.06,3.93.07,1.82-.64,3.58-1.96,4.83-1.33,1.23-3.09,1.89-4.9,1.83Z" class="cls-1" data-name="Path 789" id="Path_789"></path>
        <path d="M111.99,35.45l-.03.1c-1.13,2.74-3.86,4.46-6.82,4.31-2.16.1-4.2-1-5.31-2.86-1.19-1.93-1.8-4.86-1.8-8.69,0-.51.03-1.32.1-2.38l.1-1.06c.61-4.02,2.48-5.98,5.69-5.98,1.23-.03,2.41.42,3.31,1.26.95,1.09,1.43,2.51,1.35,3.96,0,.29-.03.58-.06.93h-8.7v1.03h13.74v-.19c-.14-2.19-1.05-4.27-2.57-5.85-1.78-1.86-4.28-2.85-6.85-2.7-3.01-.05-5.89,1.25-7.85,3.54-2.12,2.45-3.24,5.61-3.12,8.85-.06,2.24.5,4.45,1.61,6.4,1.02,1.69,2.45,3.09,4.15,4.09,1.64.95,3.5,1.45,5.4,1.45,2.01,0,3.97-.55,5.69-1.58,1.68-.98,2.93-2.55,3.51-4.41l.06-.22h-1.61v.03Z" class="cls-1" data-name="Path 790" id="Path_790"></path>
        <path d="M123.18,38.83c-.42-.3-.68-.77-.71-1.29-.06-.61-.1-2.12-.1-4.47V0h-.83c-.98.37-2.01.62-3.06.74-1.28.24-2.59.37-3.89.39h-.16v1.61h.16c1.54,0,2.54.29,2.9.84.39.58.61,2.03.61,4.34v25.16c.04,1.56,0,3.11-.13,4.67-.07.47-.34.9-.74,1.16-.7.34-1.48.49-2.25.42h-.94v1.61h11.42v-1.61h-.16c-.74.05-1.48-.11-2.12-.48Z" class="cls-1" data-name="Path 791" id="Path_791"></path>
        <path d="M136.7,39.28c-.8.07-1.6-.09-2.32-.45-.42-.3-.68-.77-.71-1.29-.06-.61-.1-2.12-.1-4.47V0h-.84c-.98.37-2.01.62-3.06.74-1.28.24-2.59.37-3.89.39h-.16v1.61h.16c1.54,0,2.54.29,2.9.84.39.58.61,2.03.61,4.34v25.16c.04,1.56,0,3.11-.13,4.67-.07.47-.34.9-.74,1.16l-.06.06c-.45.31-1,.44-1.54.35h-.16v1.61h10.91v-1.61h-.87v-.03Z" class="cls-1" data-name="Path 792" id="Path_792"></path>
        <path d="M44.27,18.05v1.54h.29c1.71.03,2.83.55,2.83,1.29-.27,1.1-.64,2.18-1.09,3.22l-4.89,11.71-5.95-12.58c-.45-.9-.79-1.85-1.03-2.83,0-.45.87-.77,2.38-.8h.29v-1.55h-10.78v1.58h.32c.8-.07,1.6.12,2.28.55.71.97,1.3,2.03,1.74,3.15l8.43,18.08-1.74,4.02h0l-2.19,5.08-1.51,3.47h0l-.74,1.74s-.03.03-.03.06c-.06.13-.13.26-.19.42h0c-.68.96-1.09.03-1.09.03h0c-.37-.86-1.25-1.39-2.19-1.32-1.09.14-1.97.96-2.19,2.03-.03.16-.04.32-.03.48v.13c.02.36.13.72.32,1.03l.03.03c.29.47.72.84,1.22,1.06.1.03.16.06.26.1.03,0,.1.03.13.03s.06.03.1.03c.3.1.62.16.93.16h.35c.06,0,.16-.03.22-.03s.16-.03.22-.03c.13-.03.26-.06.35-.1.04-.02.08-.03.13-.03.1-.04.2-.1.29-.16.19-.11.37-.22.55-.35.37-.3.71-.65,1-1.03.58-.89,1.07-1.82,1.48-2.8l.13-.32.48-1.16.61-1.45h0l11.81-27.86c.51-1.45,1.19-2.83,2.03-4.12.68-.58,1.55-.89,2.44-.87h.29v-1.54h-8.3v-.1Z" class="cls-1" data-name="Path 793" id="Path_793"></path>
        <path d="M149.02,6.82c-.16.06-.32.1-.48.16.44-.64,1.04-1.15,1.74-1.48-.47.39-.89.83-1.25,1.32ZM145.99,8.04c-.23.13-.45.23-.71.35.55-1.07,1.33-2,2.28-2.74-.61.74-1.13,1.54-1.58,2.38ZM143.03,9.75l-.68.48c.46-1.43,1.24-2.74,2.28-3.83-.68,1.04-1.22,2.17-1.61,3.35h0ZM152.3,5.4c-2.96-.32-5.24-.8-7.66.1-3.15,1.19-4.02,4.6-4.25,6.37-1.12.98-2.09,2.1-2.9,3.35l.03.55c2.8-4.25,9.33-9.01,14.73-9.39-.99.24-1.97.54-2.93.9.89.17,1.8.22,2.7.16-1.05.26-2.15.28-3.22.06-.87.35-1.7.74-2.57,1.19,1.35.38,2.75.54,4.15.48-1.56.3-3.17.23-4.7-.19-.81.45-1.59.95-2.35,1.48,1.5.55,3.07.86,4.67.93-1.75.23-3.52.04-5.18-.55-.84.61-1.67,1.32-2.51,2.06,2.01.78,4.21.94,6.31.45,4.95-1.51,5.24-4.95,7.88-7.05.45-.33.92-.62,1.42-.87-1.2.13-2.42.12-3.62-.03h0Z" class="cls-2" data-name="Path 794" id="Path_794"></path>
      </g>
    </g>
  </g>
</svg>